<svg version="1.1" viewBox="0.0 0.0 960.0 540.0" fill="none" stroke="none" stroke-linecap="square" stroke-miterlimit="10" xmlns:xlink="http://www.w3.org/1999/xlink" xmlns="http://www.w3.org/2000/svg"><clipPath id="g23b0693deb2_0_0.0"><path d="m0 0l960.0 0l0 540.0l-960.0 0l0 -540.0z" clip-rule="nonzero"/></clipPath><g clip-path="url(#g23b0693deb2_0_0.0)"><path fill="#000000" fill-opacity="0.0" d="m0 0l960.0 0l0 540.0l-960.0 0z" fill-rule="evenodd"/><path fill="#cfe2f3" d="m209.34645 26.099737l459.65356 0l0 485.5433l-459.65356 0z" fill-rule="evenodd"/><path fill="#595959" d="m375.4423 51.73974l-3.84375 0l-4.0625 -6.171875l0 6.171875l-3.859375 0l0 -12.265625l3.859375 0l4.0625 6.265625l0 -6.265625l3.84375 0l0 12.265625zm5.592285 -9.203125l0 1.515625l3.8125 0l0 2.890625l-3.8125 0l0 1.734375l4.328125 0l0 3.0625l-8.1875 0l0 -12.265625l8.1875 0l0 3.0625l-4.328125 0zm15.415619 -3.0625l0 3.046875l-3.25 0l0 9.21875l-3.859375 0l0 -9.21875l-3.21875 0l0 -3.046875l10.328125 0zm18.720947 0l-2.8125 12.265625l-4.78125 0l-1.421875 -6.96875l-1.421875 6.96875l-4.78125 0l-2.8125 -12.265625l4.140625 0l1.109375 7.71875l1.671875 -7.71875l4.1875 0l1.671875 7.71875l1.109375 -7.71875l4.140625 0zm7.3576965 12.390625q-1.734375 0 -3.1875 -0.8125q-1.4375 -0.8125 -2.296875 -2.25q-0.84375 -1.453125 -0.84375 -3.25q0 -1.796875 0.84375 -3.234375q0.859375 -1.4375 2.296875 -2.234375q1.453125 -0.8125 3.1875 -0.8125q1.734375 0 3.171875 0.8125q1.4375 0.796875 2.28125 2.234375q0.84375 1.4375 0.84375 3.234375q0 1.796875 -0.84375 3.25q-0.84375 1.4375 -2.296875 2.25q-1.4375 0.8125 -3.15625 0.8125zm0 -3.59375q1.140625 0 1.765625 -0.734375q0.625 -0.734375 0.625 -1.984375q0 -1.265625 -0.625 -2.0q-0.625 -0.734375 -1.765625 -0.734375q-1.15625 0 -1.78125 0.734375q-0.625 0.734375 -0.625 2.0q0 1.25 0.625 1.984375q0.625 0.734375 1.78125 0.734375zm13.84198 3.46875l-2.296875 -4.40625l-0.015625 0l0 4.40625l-3.859375 0l0 -12.265625l5.71875 0q1.5 0 2.546875 0.53125q1.0625 0.515625 1.59375 1.4375q0.53125 0.90625 0.53125 2.046875q0 1.234375 -0.6875 2.1875q-0.6875 0.953125 -1.96875 1.359375l2.671875 4.703125l-4.234375 0zm-2.3125 -6.96875l1.515625 0q0.5625 0 0.828125 -0.25q0.28125 -0.25 0.28125 -0.78125q0 -0.484375 -0.28125 -0.765625q-0.28125 -0.28125 -0.828125 -0.28125l-1.515625 0l0 2.078125zm15.172272 6.96875l-3.5625 -5.3125l0 5.3125l-3.859375 0l0 -12.265625l3.859375 0l0 5.15625l3.515625 -5.15625l4.34375 0l-4.21875 5.875l4.5 6.390625l-4.578125 0zm13.419037 0.125q-2.203125 0 -3.640625 -1.03125q-1.421875 -1.03125 -1.546875 -3.03125l4.09375 0q0.078125 1.0625 0.9375 1.0625q0.3125 0 0.515625 -0.140625q0.21875 -0.15625 0.21875 -0.46875q0 -0.4375 -0.46875 -0.703125q-0.46875 -0.265625 -1.453125 -0.609375q-1.171875 -0.421875 -1.953125 -0.8125q-0.765625 -0.40625 -1.328125 -1.15625q-0.546875 -0.765625 -0.53125 -1.96875q0 -1.1875 0.609375 -2.03125q0.625 -0.84375 1.6875 -1.265625q1.0625 -0.4375 2.40625 -0.4375q2.25 0 3.578125 1.046875q1.328125 1.03125 1.390625 2.90625l-4.140625 0q-0.015625 -0.515625 -0.265625 -0.734375q-0.234375 -0.234375 -0.578125 -0.234375q-0.25 0 -0.40625 0.171875q-0.15625 0.15625 -0.15625 0.453125q0 0.421875 0.453125 0.6875q0.46875 0.265625 1.46875 0.65625q1.171875 0.421875 1.921875 0.828125q0.75 0.390625 1.296875 1.109375q0.5625 0.703125 0.5625 1.78125q0 1.125 -0.5625 2.015625q-0.546875 0.890625 -1.609375 1.40625q-1.046875 0.5 -2.5 0.5zm17.376892 -12.390625l0 12.265625l-3.84375 0l0 -4.78125l-3.65625 0l0 4.78125l-3.859375 0l0 -12.265625l3.859375 0l0 4.421875l3.65625 0l0 -4.421875l3.84375 0zm9.598297 10.40625l-4.09375 0l-0.609375 1.859375l-4.03125 0l4.484375 -12.265625l4.4375 0l4.46875 12.265625l-4.046875 0l-0.609375 -1.859375zm-0.9375 -2.890625l-1.109375 -3.40625l-1.109375 3.40625l2.21875 0zm12.628937 4.75l-2.296875 -4.40625l-0.015625 0l0 4.40625l-3.859375 0l0 -12.265625l5.71875 0q1.5 0 2.546875 0.53125q1.0625 0.515625 1.59375 1.4375q0.53125 0.90625 0.53125 2.046875q0 1.234375 -0.6875 2.1875q-0.6875 0.953125 -1.96875 1.359375l2.671875 4.703125l-4.234375 0zm-2.3125 -6.96875l1.515625 0q0.5625 0 0.828125 -0.25q0.28125 -0.25 0.28125 -0.78125q0 -0.484375 -0.28125 -0.765625q-0.28125 -0.28125 -0.828125 -0.28125l-1.515625 0l0 2.078125zm11.609772 -2.234375l0 1.515625l3.8125 0l0 2.890625l-3.8125 0l0 1.734375l4.328125 0l0 3.0625l-8.1875 0l0 -12.265625l8.1875 0l0 3.0625l-4.328125 0z" fill-rule="nonzero"/><path fill="#fff2cc" d="m21.629921 26.099737l176.6614 0l0 485.5433l-176.6614 0z" fill-rule="evenodd"/><path fill="#595959" d="m42.03164 48.83349l3.703125 0l0 2.90625l-7.5625 0l0 -12.265625l3.859375 0l0 9.359375zm10.892975 3.03125q-1.734375 0 -3.1875 -0.8125q-1.4375 -0.8125 -2.296875 -2.25q-0.84375 -1.453125 -0.84375 -3.25q0 -1.796875 0.84375 -3.234375q0.859375 -1.4375 2.296875 -2.234375q1.453125 -0.8125 3.1875 -0.8125q1.734375 0 3.171875 0.8125q1.4375 0.796875 2.28125 2.234375q0.84375 1.4375 0.84375 3.234375q0 1.796875 -0.84375 3.25q-0.84375 1.4375 -2.296875 2.25q-1.4375 0.8125 -3.15625 0.8125zm0 -3.59375q1.140625 0 1.765625 -0.734375q0.625 -0.734375 0.625 -1.984375q0 -1.265625 -0.625 -2.0q-0.625 -0.734375 -1.765625 -0.734375q-1.15625 0 -1.78125 0.734375q-0.625 0.734375 -0.625 2.0q0 1.25 0.625 1.984375q0.625 0.734375 1.78125 0.734375zm7.326355 -2.6875q0 -1.8125 0.734375 -3.234375q0.75 -1.421875 2.109375 -2.203125q1.375 -0.796875 3.21875 -0.796875q1.59375 0 2.84375 0.609375q1.265625 0.59375 2.046875 1.6875q0.796875 1.078125 1.0625 2.53125l-4.0625 0q-0.265625 -0.59375 -0.78125 -0.9375q-0.515625 -0.34375 -1.171875 -0.34375q-0.96875 0 -1.53125 0.734375q-0.5625 0.734375 -0.5625 1.953125q0 1.234375 0.5625 1.96875q0.5625 0.71875 1.53125 0.71875q0.65625 0 1.171875 -0.328125q0.515625 -0.34375 0.78125 -0.953125l4.0625 0q-0.265625 1.453125 -1.0625 2.546875q-0.78125 1.09375 -2.046875 1.703125q-1.25 0.59375 -2.84375 0.59375q-1.84375 0 -3.21875 -0.78125q-1.359375 -0.796875 -2.109375 -2.21875q-0.734375 -1.421875 -0.734375 -3.25zm21.266754 4.296875l-4.09375 0l-0.609375 1.859375l-4.03125 0l4.484375 -12.265625l4.4375 0l4.46875 12.265625l-4.046875 0l-0.609375 -1.859375zm-0.9375 -2.890625l-1.109375 -3.40625l-1.109375 3.40625l2.21875 0zm10.316437 1.84375l3.703125 0l0 2.90625l-7.5625 0l0 -12.265625l3.859375 0l0 9.359375zm22.60437 -9.359375l0 12.265625l-3.828125 0l0 -6.109375l-1.890625 6.109375l-3.28125 0l-1.890625 -6.109375l0 6.109375l-3.859375 0l0 -12.265625l4.71875 0l2.703125 7.359375l2.640625 -7.359375l4.6875 0zm9.603958 10.40625l-4.09375 0l-0.609375 1.859375l-4.03125 0l4.484375 -12.265625l4.4375 0l4.46875 12.265625l-4.046875 0l-0.609375 -1.859375zm-0.9375 -2.890625l-1.109375 -3.40625l-1.109375 3.40625l2.21875 0zm6.1133194 -1.40625q0 -1.8125 0.734375 -3.234375q0.75 -1.421875 2.109375 -2.203125q1.375 -0.796875 3.21875 -0.796875q1.59375 0 2.84375 0.609375q1.265625 0.59375 2.046875 1.6875q0.796875 1.078125 1.0625 2.53125l-4.0625 0q-0.265625 -0.59375 -0.78125 -0.9375q-0.515625 -0.34375 -1.171875 -0.34375q-0.96875 0 -1.53125 0.734375q-0.5625 0.734375 -0.5625 1.953125q0 1.234375 0.5625 1.96875q0.5625 0.71875 1.53125 0.71875q0.65625 0 1.171875 -0.328125q0.515625 -0.34375 0.78125 -0.953125l4.0625 0q-0.265625 1.453125 -1.0625 2.546875q-0.78125 1.09375 -2.046875 1.703125q-1.25 0.59375 -2.84375 0.59375q-1.84375 0 -3.21875 -0.78125q-1.359375 -0.796875 -2.109375 -2.21875q-0.734375 -1.421875 -0.734375 -3.25zm24.75113 -6.109375l0 12.265625l-3.84375 0l0 -4.78125l-3.65625 0l0 4.78125l-3.859375 0l0 -12.265625l3.859375 0l0 4.421875l3.65625 0l0 -4.421875l3.84375 0zm5.582657 0l0 12.265625l-3.859375 0l0 -12.265625l3.859375 0zm13.48587 12.265625l-3.84375 0l-4.0625 -6.171875l0 6.171875l-3.859375 0l0 -12.265625l3.859375 0l4.0625 6.265625l0 -6.265625l3.84375 0l0 12.265625zm5.592285 -9.203125l0 1.515625l3.8125 0l0 2.890625l-3.8125 0l0 1.734375l4.328125 0l0 3.0625l-8.1875 0l0 -12.265625l8.1875 0l0 3.0625l-4.328125 0z" fill-rule="nonzero"/><path fill="#000000" fill-opacity="0.0" d="m111.67205 333.63354l0.12598419 72.25195" fill-rule="evenodd"/><path stroke="#e06666" stroke-width="2.0" stroke-linejoin="round" stroke-linecap="butt" d="m111.67205 333.63354l0.10505676 60.251953" fill-rule="evenodd"/><path fill="#e06666" stroke="#e06666" stroke-width="2.0" stroke-linecap="butt" d="m108.47365 393.89127l3.3192902 9.070435l3.2876282 -9.08194z" fill-rule="evenodd"/><path fill="#000000" fill-opacity="0.0" d="m408.26685 110.355644l0 67.051094l0.06298828 0l0 67.05914" fill-rule="evenodd"/><path stroke="#0f9967" stroke-width="2.0" stroke-linejoin="round" stroke-linecap="butt" d="m408.26685 110.355644l0 67.051094l0.06298828 0l0 55.059143" fill-rule="evenodd"/><path fill="#0f9967" stroke="#0f9967" stroke-width="2.0" stroke-linecap="butt" d="m405.0264 232.46588l3.3034363 9.076187l3.3034668 -9.076187z" fill-rule="evenodd"/><path fill="#191f2d" d="m449.10498 750.9554l0 0c0 -4.8828125E-4 4.272461E-4 -9.1552734E-4 9.1552734E-4 -9.1552734E-4l110.266785 9.1552734E-4c2.4414062E-4 0 4.8828125E-4 1.2207031E-4 6.713867E-4 2.4414062E-4c1.8310547E-4 1.8310547E-4 2.4414062E-4 4.272461E-4 2.4414062E-4 6.713867E-4l-9.1552734E-4 19.841614c0 4.8828125E-4 -3.6621094E-4 9.1552734E-4 -9.1552734E-4 9.1552734E-4l-110.266785 -9.1552734E-4l0 0c-4.8828125E-4 0 -9.1552734E-4 -4.272461E-4 -9.1552734E-4 -9.1552734E-4z" fill-rule="evenodd"/><path fill="#fcf2ea" d="m472.73282 759.2729q0.03125 -1.28125 0.734375 -1.9375q0.703125 -0.671875 2.015625 -0.671875q0.84375 0 1.4375 0.28125q0.59375 0.28125 0.890625 0.78125q0.3125 0.484375 0.3125 1.109375q0 0.734375 -0.359375 1.15625q-0.34375 0.421875 -0.78125 0.578125l0 0.046875q1.28125 0.46875 1.28125 1.765625q0 0.6875 -0.328125 1.21875q-0.3125 0.515625 -0.90625 0.8125q-0.59375 0.28125 -1.40625 0.28125q-1.375 0 -2.171875 -0.65625q-0.78125 -0.671875 -0.8125 -2.078125l2.3125 0q-0.03125 0.390625 0.09375 0.59375q0.140625 0.1875 0.46875 0.1875q0.203125 0 0.328125 -0.140625q0.125 -0.140625 0.125 -0.375q0 -0.3125 -0.203125 -0.453125q-0.1875 -0.15625 -0.65625 -0.15625l-0.390625 0l0 -1.90625l0.375 0q0.71875 0.03125 0.71875 -0.578125q0 -0.265625 -0.109375 -0.390625q-0.109375 -0.140625 -0.28125 -0.140625q-0.390625 0 -0.390625 0.671875l-2.296875 0zm9.74118 -2.203125q1.1875 0 2.078125 0.484375q0.890625 0.484375 1.359375 1.34375q0.484375 0.84375 0.484375 1.921875q0 1.078125 -0.484375 1.953125q-0.46875 0.859375 -1.359375 1.359375q-0.890625 0.484375 -2.078125 0.484375l-3.140625 0l0 -7.546875l3.140625 0zm-0.203125 5.4375q0.796875 0 1.265625 -0.4375q0.46875 -0.4375 0.46875 -1.25q0 -0.8125 -0.46875 -1.25q-0.46875 -0.4375 -1.265625 -0.4375l-0.5625 0l0 3.375l0.5625 0zm6.572998 -1.671875q0 -1.125 0.453125 -2.0q0.453125 -0.875 1.296875 -1.359375q0.84375 -0.484375 1.984375 -0.484375q0.984375 0 1.75 0.375q0.78125 0.359375 1.265625 1.03125q0.484375 0.671875 0.640625 1.578125l-2.484375 0q-0.171875 -0.375 -0.5 -0.578125q-0.3125 -0.21875 -0.71875 -0.21875q-0.59375 0 -0.9375 0.453125q-0.34375 0.4375 -0.34375 1.203125q0 0.75 0.34375 1.203125q0.34375 0.453125 0.9375 0.453125q0.40625 0 0.71875 -0.203125q0.328125 -0.21875 0.5 -0.59375l2.484375 0q-0.15625 0.890625 -0.640625 1.5625q-0.484375 0.671875 -1.265625 1.046875q-0.765625 0.359375 -1.75 0.359375q-1.140625 0 -1.984375 -0.484375q-0.84375 -0.484375 -1.296875 -1.359375q-0.453125 -0.875 -0.453125 -1.984375zm13.086731 2.640625l-2.515625 0l-0.375 1.140625l-2.484375 0l2.765625 -7.546875l2.71875 0l2.75 7.546875l-2.484375 0l-0.375 -1.140625zm-0.578125 -1.78125l-0.6875 -2.09375l-0.671875 2.09375l1.359375 0zm13.034241 -4.625l0 7.546875l-2.34375 0l0 -3.765625l-1.171875 3.765625l-2.015625 0l-1.15625 -3.765625l0 3.765625l-2.375 0l0 -7.546875l2.90625 0l1.65625 4.53125l1.625 -4.53125l2.875 0zm3.4467163 1.890625l0 0.921875l2.34375 0l0 1.78125l-2.34375 0l0 1.0625l2.65625 0l0 1.890625l-5.03125 0l0 -7.546875l5.03125 0l0 1.890625l-2.65625 0zm7.3468018 5.65625l-1.421875 -2.703125l0 0l0 2.703125l-2.375 0l0 -7.546875l3.515625 0q0.921875 0 1.5625 0.328125q0.65625 0.328125 0.984375 0.890625q0.328125 0.546875 0.328125 1.25q0 0.765625 -0.421875 1.359375q-0.421875 0.578125 -1.21875 0.828125l1.640625 2.890625l-2.59375 0zm-1.421875 -4.28125l0.9375 0q0.328125 0 0.5 -0.15625q0.171875 -0.15625 0.171875 -0.484375q0 -0.296875 -0.171875 -0.46875q-0.171875 -0.171875 -0.5 -0.171875l-0.9375 0l0 1.28125zm9.6085205 3.140625l-2.515625 0l-0.375 1.140625l-2.484375 0l2.765625 -7.546875l2.71875 0l2.75 7.546875l-2.484375 0l-0.375 -1.140625zm-0.578125 -1.78125l-0.6875 -2.09375l-0.671875 2.09375l1.359375 0z" fill-rule="nonzero"/><path fill="#0f9967" d="m350.10938 244.45654l116.31494 0l0 32.44095l-116.31494 0z" fill-rule="evenodd"/><path fill="#fcf2ea" d="m382.20926 256.497q1.328125 0 2.328125 0.546875q1.0 0.53125 1.546875 1.5q0.546875 0.953125 0.546875 2.1875q0 1.203125 -0.546875 2.1875q-0.546875 0.96875 -1.546875 1.53125q-1.0 0.546875 -2.328125 0.546875l-3.546875 0l0 -8.5l3.546875 0zm-0.234375 6.125q0.890625 0 1.421875 -0.484375q0.53125 -0.5 0.53125 -1.40625q0 -0.921875 -0.53125 -1.40625q-0.53125 -0.5 -1.421875 -0.5l-0.640625 0l0 3.796875l0.640625 0zm5.3692017 -1.890625q0 -1.25 0.5 -2.234375q0.515625 -0.984375 1.46875 -1.53125q0.953125 -0.546875 2.234375 -0.546875q1.09375 0 1.96875 0.421875q0.875 0.40625 1.421875 1.171875q0.546875 0.75 0.71875 1.75l-2.796875 0q-0.203125 -0.421875 -0.5625 -0.65625q-0.34375 -0.234375 -0.796875 -0.234375q-0.671875 0 -1.0625 0.515625q-0.390625 0.5 -0.390625 1.34375q0 0.859375 0.390625 1.359375q0.390625 0.5 1.0625 0.5q0.453125 0 0.796875 -0.234375q0.359375 -0.234375 0.5625 -0.640625l2.796875 0q-0.171875 1.0 -0.71875 1.765625q-0.546875 0.75 -1.421875 1.171875q-0.875 0.40625 -1.96875 0.40625q-1.28125 0 -2.234375 -0.546875q-0.953125 -0.546875 -1.46875 -1.53125q-0.5 -0.984375 -0.5 -2.25zm9.036041 0q0 -1.25 0.5 -2.234375q0.515625 -0.984375 1.46875 -1.53125q0.953125 -0.546875 2.234375 -0.546875q1.09375 0 1.96875 0.421875q0.875 0.40625 1.421875 1.171875q0.546875 0.75 0.71875 1.75l-2.796875 0q-0.203125 -0.421875 -0.5625 -0.65625q-0.34375 -0.234375 -0.796875 -0.234375q-0.671875 0 -1.0625 0.515625q-0.390625 0.5 -0.390625 1.34375q0 0.859375 0.390625 1.359375q0.390625 0.5 1.0625 0.5q0.453125 0 0.796875 -0.234375q0.359375 -0.234375 0.5625 -0.640625l2.796875 0q-0.171875 1.0 -0.71875 1.765625q-0.546875 0.75 -1.421875 1.171875q-0.875 0.40625 -1.96875 0.40625q-1.28125 0 -2.234375 -0.546875q-0.953125 -0.546875 -1.46875 -1.53125q-0.5 -0.984375 -0.5 -2.25zm19.16983 -4.234375l0 8.5l-2.65625 0l0 -3.3125l-2.53125 0l0 3.3125l-2.671875 0l0 -8.5l2.671875 0l0 3.0625l2.53125 0l0 -3.0625l2.65625 0zm5.3413086 8.578125q-1.1875 0 -2.203125 -0.5625q-1.0 -0.5625 -1.59375 -1.546875q-0.578125 -1.0 -0.578125 -2.25q0 -1.25 0.578125 -2.25q0.59375 -1.0 1.59375 -1.546875q1.015625 -0.5625 2.203125 -0.5625q1.203125 0 2.203125 0.5625q1.0 0.546875 1.578125 1.546875q0.578125 1.0 0.578125 2.25q0 1.25 -0.578125 2.25q-0.578125 0.984375 -1.59375 1.546875q-1.0 0.5625 -2.1875 0.5625zm0 -2.484375q0.796875 0 1.21875 -0.5q0.4375 -0.515625 0.4375 -1.375q0 -0.875 -0.4375 -1.390625q-0.421875 -0.515625 -1.21875 -0.515625q-0.796875 0 -1.234375 0.515625q-0.421875 0.515625 -0.421875 1.390625q0 0.859375 0.421875 1.375q0.4375 0.5 1.234375 0.5zm8.643555 2.484375q-1.515625 0 -2.515625 -0.703125q-0.984375 -0.71875 -1.0625 -2.09375l2.828125 0q0.0625 0.734375 0.640625 0.734375q0.21875 0 0.359375 -0.109375q0.15625 -0.109375 0.15625 -0.3125q0 -0.3125 -0.328125 -0.484375q-0.3125 -0.1875 -1.0 -0.4375q-0.8125 -0.28125 -1.359375 -0.546875q-0.53125 -0.28125 -0.921875 -0.8125q-0.375 -0.53125 -0.359375 -1.359375q0 -0.828125 0.421875 -1.40625q0.4375 -0.59375 1.171875 -0.890625q0.734375 -0.296875 1.65625 -0.296875q1.5625 0 2.484375 0.71875q0.921875 0.71875 0.96875 2.03125l-2.875 0q-0.015625 -0.359375 -0.1875 -0.515625q-0.15625 -0.15625 -0.40625 -0.15625q-0.15625 0 -0.265625 0.109375q-0.109375 0.109375 -0.109375 0.328125q0 0.28125 0.3125 0.46875q0.328125 0.1875 1.015625 0.453125q0.8125 0.296875 1.328125 0.578125q0.515625 0.265625 0.890625 0.765625q0.390625 0.484375 0.390625 1.234375q0 0.78125 -0.390625 1.40625q-0.375 0.609375 -1.109375 0.953125q-0.71875 0.34375 -1.734375 0.34375zm10.843811 -8.578125l0 2.109375l-2.25 0l0 6.390625l-2.65625 0l0 -6.390625l-2.234375 0l0 -2.109375l7.140625 0z" fill-rule="nonzero"/><path fill="#0f9967" d="m21.026247 802.4908l92.78741 0l0 36.346497l-92.78741 0z" fill-rule="evenodd"/><path fill="#fcf2ea" d="m35.28916 820.7228q0 -1.125 0.453125 -2.0q0.453125 -0.875 1.296875 -1.359375q0.84375 -0.484375 1.984375 -0.484375q0.984375 0 1.75 0.375q0.78125 0.359375 1.265625 1.03125q0.484375 0.671875 0.640625 1.578125l-2.484375 0q-0.171875 -0.375 -0.5 -0.578125q-0.3125 -0.21875 -0.71875 -0.21875q-0.59375 0 -0.9375 0.453125q-0.34375 0.4375 -0.34375 1.203125q0 0.75 0.34375 1.203125q0.34375 0.453125 0.9375 0.453125q0.40625 0 0.71875 -0.203125q0.328125 -0.21875 0.5 -0.59375l2.484375 0q-0.15625 0.890625 -0.640625 1.5625q-0.484375 0.671875 -1.265625 1.046875q-0.765625 0.359375 -1.75 0.359375q-1.140625 0 -1.984375 -0.484375q-0.84375 -0.484375 -1.296875 -1.359375q-0.453125 -0.875 -0.453125 -1.984375zm13.086731 2.640625l-2.515625 0l-0.375 1.140625l-2.484375 0l2.765625 -7.546875l2.71875 0l2.75 7.546875l-2.484375 0l-0.375 -1.140625zm-0.578125 -1.78125l-0.6875 -2.09375l-0.671875 2.09375l1.359375 0zm7.1123657 -4.625q1.1875 0 2.078125 0.484375q0.890625 0.484375 1.359375 1.34375q0.484375 0.84375 0.484375 1.921875q0 1.078125 -0.484375 1.953125q-0.46875 0.859375 -1.359375 1.359375q-0.890625 0.484375 -2.078125 0.484375l-3.140625 0l0 -7.546875l3.140625 0zm-0.203125 5.4375q0.796875 0 1.265625 -0.4375q0.46875 -0.4375 0.46875 -1.25q0 -0.8125 -0.46875 -1.25q-0.46875 -0.4375 -1.265625 -0.4375l-0.5625 0l0 3.375l0.5625 0zm9.166763 -5.4375l0 7.546875l-2.375 0l0 -7.546875l2.375 0zm8.290726 7.546875l-2.359375 0l-2.5 -3.796875l0 3.796875l-2.375 0l0 -7.546875l2.375 0l2.5 3.859375l0 -3.859375l2.359375 0l0 7.546875zm5.691925 -4.96875q-0.140625 -0.21875 -0.40625 -0.34375q-0.25 -0.125 -0.609375 -0.125q-0.671875 0 -1.046875 0.453125q-0.375 0.4375 -0.375 1.203125q0 0.875 0.40625 1.3125q0.421875 0.4375 1.28125 0.4375q0.828125 0 1.328125 -0.65625l-1.890625 0l0 -1.671875l3.84375 0l0 2.359375q-0.484375 0.84375 -1.34375 1.453125q-0.859375 0.59375 -2.1875 0.59375q-1.171875 0 -2.046875 -0.484375q-0.859375 -0.484375 -1.328125 -1.359375q-0.46875 -0.875 -0.46875 -1.984375q0 -1.125 0.46875 -2.0q0.46875 -0.875 1.328125 -1.359375q0.859375 -0.484375 2.03125 -0.484375q1.46875 0 2.40625 0.71875q0.9375 0.71875 1.109375 1.9375l-2.5 0zm5.7635803 -0.6875l0 0.921875l2.34375 0l0 1.78125l-2.34375 0l0 1.0625l2.65625 0l0 1.890625l-5.03125 0l0 -7.546875l5.03125 0l0 1.890625l-2.65625 0zm6.503067 5.734375q-1.359375 0 -2.234375 -0.625q-0.875 -0.640625 -0.953125 -1.875l2.515625 0q0.046875 0.65625 0.578125 0.65625q0.1875 0 0.3125 -0.09375q0.140625 -0.09375 0.140625 -0.28125q0 -0.265625 -0.296875 -0.421875q-0.28125 -0.171875 -0.875 -0.390625q-0.734375 -0.25 -1.21875 -0.5q-0.46875 -0.25 -0.8125 -0.71875q-0.328125 -0.46875 -0.328125 -1.203125q0 -0.734375 0.375 -1.25q0.390625 -0.515625 1.046875 -0.78125q0.65625 -0.265625 1.46875 -0.265625q1.390625 0 2.203125 0.640625q0.8125 0.640625 0.859375 1.796875l-2.546875 0q-0.015625 -0.3125 -0.171875 -0.453125q-0.140625 -0.140625 -0.34375 -0.140625q-0.15625 0 -0.25 0.109375q-0.09375 0.09375 -0.09375 0.265625q0 0.265625 0.28125 0.4375q0.28125 0.15625 0.890625 0.390625q0.71875 0.265625 1.1875 0.515625q0.46875 0.234375 0.796875 0.671875q0.34375 0.4375 0.34375 1.109375q0 0.6875 -0.34375 1.234375q-0.328125 0.546875 -0.984375 0.859375q-0.65625 0.3125 -1.546875 0.3125zm9.628967 -7.625l0 1.875l-2.0 0l0 5.671875l-2.359375 0l0 -5.671875l-1.984375 0l0 -1.875l6.34375 0z" fill-rule="nonzero"/><path fill="#e06666" d="m49.908268 405.88748l123.779526 0l0 32.440918l-123.779526 0z" fill-rule="evenodd"/><path fill="#ffffff" d="m83.124245 417.92795l0 8.5l-2.65625 0l0 -4.234375l-1.296875 4.234375l-2.28125 0l-1.3125 -4.234375l0 4.234375l-2.671875 0l0 -8.5l3.265625 0l1.875 5.109375l1.828125 -5.109375l3.25 0zm8.146454 2.921875q0 0.796875 -0.375 1.453125q-0.375 0.65625 -1.09375 1.046875q-0.71875 0.375 -1.765625 0.375l-1.046875 0l0 2.703125l-2.671875 0l0 -8.5l3.71875 0q1.5625 0 2.390625 0.796875q0.84375 0.796875 0.84375 2.125zm-3.53125 0.78125q0.828125 0 0.828125 -0.78125q0 -0.78125 -0.828125 -0.78125l-0.75 0l0 1.5625l0.75 0zm4.3974304 3.484375l0 -2.234375l3.578125 -5.09375l2.859375 0l0 5.015625l0.875 0l0 2.3125l-0.875 0l0 1.3125l-2.6875 0l0 -1.3125l-3.75 0zm3.96875 -4.296875l-1.296875 1.984375l1.296875 0l0 -1.984375zm10.628693 5.6875q-1.1875 0 -2.203125 -0.5625q-1.0 -0.5625 -1.59375 -1.546875q-0.578125 -1.0 -0.578125 -2.25q0 -1.25 0.578125 -2.25q0.59375 -1.0 1.59375 -1.546875q1.015625 -0.5625 2.203125 -0.5625q1.203125 0 2.203125 0.5625q1.0 0.546875 1.578125 1.546875q0.578125 1.0 0.578125 2.25q0 1.25 -0.578125 2.25q-0.578125 0.984375 -1.59375 1.546875q-1.0 0.5625 -2.1875 0.5625zm0 -2.484375q0.796875 0 1.21875 -0.5q0.4375 -0.515625 0.4375 -1.375q0 -0.875 -0.4375 -1.390625q-0.421875 -0.515625 -1.21875 -0.515625q-0.796875 0 -1.234375 0.515625q-0.421875 0.515625 -0.421875 1.390625q0 0.859375 0.421875 1.375q0.4375 0.5 1.234375 0.5zm7.92482 -6.09375l0 4.796875q0 0.578125 0.25 0.921875q0.265625 0.34375 0.84375 0.34375q0.578125 0 0.84375 -0.34375q0.28125 -0.34375 0.28125 -0.921875l0 -4.796875l2.65625 0l0 4.796875q0 1.203125 -0.515625 2.0625q-0.5 0.859375 -1.375 1.296875q-0.875 0.421875 -1.953125 0.421875q-1.078125 0 -1.921875 -0.421875q-0.828125 -0.4375 -1.296875 -1.28125q-0.46875 -0.859375 -0.46875 -2.078125l0 -4.796875l2.65625 0zm12.690567 0l0 2.109375l-2.25 0l0 6.390625l-2.65625 0l0 -6.390625l-2.234375 0l0 -2.109375l7.140625 0zm7.6733017 2.921875q0 0.796875 -0.375 1.453125q-0.375 0.65625 -1.09375 1.046875q-0.71875 0.375 -1.765625 0.375l-1.046875 0l0 2.703125l-2.671875 0l0 -8.5l3.71875 0q1.5625 0 2.390625 0.796875q0.84375 0.796875 0.84375 2.125zm-3.53125 0.78125q0.828125 0 0.828125 -0.78125q0 -0.78125 -0.828125 -0.78125l-0.75 0l0 1.5625l0.75 0zm6.9755554 -3.703125l0 4.796875q0 0.578125 0.25 0.921875q0.265625 0.34375 0.84375 0.34375q0.578125 0 0.84375 -0.34375q0.28125 -0.34375 0.28125 -0.921875l0 -4.796875l2.65625 0l0 4.796875q0 1.203125 -0.515625 2.0625q-0.5 0.859375 -1.375 1.296875q-0.875 0.421875 -1.953125 0.421875q-1.078125 0 -1.921875 -0.421875q-0.828125 -0.4375 -1.296875 -1.28125q-0.46875 -0.859375 -0.46875 -2.078125l0 -4.796875l2.65625 0zm12.690567 0l0 2.109375l-2.25 0l0 6.390625l-2.65625 0l0 -6.390625l-2.234375 0l0 -2.109375l7.140625 0z" fill-rule="nonzero"/><path fill="#000000" fill-opacity="0.0" d="m408.26685 276.8975l0 76.031494" fill-rule="evenodd"/><path stroke="#0f9967" stroke-width="2.0" stroke-linejoin="round" stroke-linecap="butt" d="m408.26685 276.8975l0 64.03146" fill-rule="evenodd"/><path fill="#0f9967" stroke="#0f9967" stroke-width="2.0" stroke-linecap="butt" d="m404.96338 340.92896l3.3034668 9.076202l3.3034668 -9.076202z" fill-rule="evenodd"/><path fill="#000000" fill-opacity="0.0" d="m278.61285 971.5318l0 -140.85034l-83.779526 0l0 -140.8504" fill-rule="evenodd"/><path stroke="#ffc900" stroke-width="2.0" stroke-linejoin="round" stroke-linecap="butt" d="m278.61285 971.5318l0 -140.85034l-83.779526 0l0 -140.8504" fill-rule="evenodd"/><path fill="#000000" fill-opacity="0.0" d="m222.44882 173.05774l-185.48767 0l0 196.69293l12.952236 0" fill-rule="evenodd"/><path stroke="#4285f4" stroke-width="2.0" stroke-linejoin="round" stroke-linecap="butt" stroke-dasharray="8.0,6.0" d="m222.44882 173.05774l-185.48767 0l0 196.69293l12.952236 0" fill-rule="evenodd"/><path fill="#000000" fill-opacity="0.0" d="m105.34646 708.94226l-43.653545 -2.1417236" fill-rule="evenodd"/><path stroke="#ffc900" stroke-width="2.0" stroke-linejoin="round" stroke-linecap="butt" d="m105.34646 708.94226l-31.667961 -1.5537109" fill-rule="evenodd"/><path fill="#ffc900" stroke="#ffc900" stroke-width="2.0" stroke-linecap="butt" d="m73.84038 704.08905l-9.227173 2.8547363l8.903412 3.7442627z" fill-rule="evenodd"/><path fill="#4285f4" d="m350.11053 352.9134l0 0c0 -5.493164E-4 4.272461E-4 -9.765625E-4 9.460449E-4 -9.765625E-4l116.313995 9.765625E-4c2.746582E-4 0 5.187988E-4 9.1552734E-5 7.019043E-4 2.746582E-4c1.8310547E-4 1.8310547E-4 2.746582E-4 4.272461E-4 2.746582E-4 7.019043E-4l-9.765625E-4 32.439972c0 5.187988E-4 -4.272461E-4 9.460449E-4 -9.765625E-4 9.460449E-4l-116.313965 -9.460449E-4l0 0c-5.493164E-4 0 -9.765625E-4 -4.5776367E-4 -9.765625E-4 -9.765625E-4z" fill-rule="evenodd"/><path fill="#fcf2ea" d="m399.7854 374.80838l-0.8125 -1.34375q-0.28125 0.046875 -0.640625 0.046875q-1.1875 0 -2.203125 -0.5625q-1.0 -0.5625 -1.59375 -1.546875q-0.578125 -1.0 -0.578125 -2.25q0 -1.25 0.578125 -2.25q0.59375 -1.0 1.59375 -1.546875q1.015625 -0.5625 2.203125 -0.5625q1.203125 0 2.203125 0.5625q1.0 0.546875 1.578125 1.546875q0.578125 1.0 0.578125 2.25q0 1.015625 -0.40625 1.875q-0.390625 0.859375 -1.078125 1.453125l1.734375 2.328125l-3.15625 0zm-3.109375 -5.65625q0 0.859375 0.421875 1.375q0.4375 0.5 1.234375 0.5q0.796875 0 1.21875 -0.5q0.4375 -0.515625 0.4375 -1.375q0 -0.875 -0.4375 -1.390625q-0.421875 -0.515625 -1.21875 -0.515625q-0.796875 0 -1.234375 0.515625q-0.421875 0.515625 -0.421875 1.390625zm13.643555 -4.21875l0 2.109375l-2.25 0l0 6.390625l-2.65625 0l0 -6.390625l-2.234375 0l0 -2.109375l7.140625 0zm5.369568 0l0 4.796875q0 0.578125 0.25 0.921875q0.265625 0.34375 0.84375 0.34375q0.578125 0 0.84375 -0.34375q0.28125 -0.34375 0.28125 -0.921875l0 -4.796875l2.65625 0l0 4.796875q0 1.203125 -0.515625 2.0625q-0.5 0.859375 -1.375 1.296875q-0.875 0.421875 -1.953125 0.421875q-1.078125 0 -1.921875 -0.421875q-0.828125 -0.4375 -1.296875 -1.28125q-0.46875 -0.859375 -0.46875 -2.078125l0 -4.796875l2.65625 0zm8.690582 0l0 8.5l-2.671875 0l0 -8.5l2.671875 0z" fill-rule="nonzero"/><path fill="#191f2d" d="m590.3756 750.9554l0 0c0 -7.9345703E-4 6.1035156E-4 -0.0014038086 0.0014038086 -0.0014038086l169.88837 0.0014038086c3.6621094E-4 0 7.324219E-4 1.2207031E-4 9.765625E-4 4.272461E-4c2.4414062E-4 2.4414062E-4 4.272461E-4 6.1035156E-4 4.272461E-4 9.765625E-4l-0.0014038086 19.841125c0 7.9345703E-4 -6.713867E-4 0.0014038086 -0.0014648438 0.0014038086l-169.8883 -0.0014038086l0 0c-7.9345703E-4 0 -0.0014038086 -6.713867E-4 -0.0014038086 -0.0014038086z" fill-rule="evenodd"/><path fill="#fcf2ea" d="m635.6858 764.61664l-1.421875 -2.703125l0 0l0 2.703125l-2.375 0l0 -7.546875l3.515625 0q0.921875 0 1.5625 0.328125q0.65625 0.328125 0.984375 0.890625q0.328125 0.546875 0.328125 1.25q0 0.765625 -0.421875 1.359375q-0.421875 0.578125 -1.21875 0.828125l1.640625 2.890625l-2.59375 0zm-1.421875 -4.28125l0.9375 0q0.328125 0 0.5 -0.15625q0.171875 -0.15625 0.171875 -0.484375q0 -0.296875 -0.171875 -0.46875q-0.171875 -0.171875 -0.5 -0.171875l-0.9375 0l0 1.28125zm7.1397705 -1.375l0 0.921875l2.34375 0l0 1.78125l-2.34375 0l0 1.0625l2.65625 0l0 1.890625l-5.03125 0l0 -7.546875l5.03125 0l0 1.890625l-2.65625 0zm10.784302 5.65625l-2.359375 0l-2.5 -3.796875l0 3.796875l-2.375 0l0 -7.546875l2.375 0l2.5 3.859375l0 -3.859375l2.359375 0l0 7.546875zm4.2075195 -7.546875q1.1875 0 2.078125 0.484375q0.890625 0.484375 1.359375 1.34375q0.484375 0.84375 0.484375 1.921875q0 1.078125 -0.484375 1.953125q-0.46875 0.859375 -1.359375 1.359375q-0.890625 0.484375 -2.078125 0.484375l-3.140625 0l0 -7.546875l3.140625 0zm-0.203125 5.4375q0.796875 0 1.265625 -0.4375q0.46875 -0.4375 0.46875 -1.25q0 -0.8125 -0.46875 -1.25q-0.46875 -0.4375 -1.265625 -0.4375l-0.5625 0l0 3.375l0.5625 0zm7.3552246 -3.546875l0 0.921875l2.34375 0l0 1.78125l-2.34375 0l0 1.0625l2.65625 0l0 1.890625l-5.03125 0l0 -7.546875l5.03125 0l0 1.890625l-2.65625 0zm7.3468018 5.65625l-1.421875 -2.703125l0 0l0 2.703125l-2.375 0l0 -7.546875l3.515625 0q0.921875 0 1.5625 0.328125q0.65625 0.328125 0.984375 0.890625q0.328125 0.546875 0.328125 1.25q0 0.765625 -0.421875 1.359375q-0.421875 0.578125 -1.21875 0.828125l1.640625 2.890625l-2.59375 0zm-1.421875 -4.28125l0.9375 0q0.328125 0 0.5 -0.15625q0.171875 -0.15625 0.171875 -0.484375q0 -0.296875 -0.171875 -0.46875q-0.171875 -0.171875 -0.5 -0.171875l-0.9375 0l0 1.28125zm10.24823 4.359375q-1.0625 0 -1.953125 -0.5q-0.890625 -0.5 -1.421875 -1.390625q-0.515625 -0.890625 -0.515625 -1.984375q0 -1.109375 0.515625 -2.0q0.53125 -0.890625 1.421875 -1.375q0.890625 -0.5 1.953125 -0.5q1.078125 0 1.953125 0.5q0.890625 0.484375 1.40625 1.375q0.515625 0.890625 0.515625 2.0q0 1.09375 -0.515625 1.984375q-0.515625 0.890625 -1.40625 1.390625q-0.890625 0.5 -1.953125 0.5zm0 -2.203125q0.703125 0 1.09375 -0.453125q0.390625 -0.453125 0.390625 -1.21875q0 -0.78125 -0.390625 -1.234375q-0.390625 -0.453125 -1.09375 -0.453125q-0.703125 0 -1.09375 0.453125q-0.375 0.453125 -0.375 1.234375q0 0.765625 0.375 1.21875q0.390625 0.453125 1.09375 0.453125zm7.037842 -5.421875l0 4.25q0 0.53125 0.21875 0.84375q0.234375 0.296875 0.75 0.296875q0.515625 0 0.75 -0.296875q0.25 -0.3125 0.25 -0.84375l0 -4.25l2.359375 0l0 4.25q0 1.078125 -0.453125 1.84375q-0.4375 0.765625 -1.21875 1.15625q-0.78125 0.375 -1.734375 0.375q-0.96875 0 -1.703125 -0.375q-0.734375 -0.390625 -1.15625 -1.140625q-0.421875 -0.765625 -0.421875 -1.859375l0 -4.25l2.359375 0zm11.271301 0l0 1.875l-2.0 0l0 5.671875l-2.359375 0l0 -5.671875l-1.984375 0l0 -1.875l6.34375 0zm6.81427 2.59375q0 0.71875 -0.328125 1.296875q-0.328125 0.578125 -0.984375 0.921875q-0.640625 0.34375 -1.546875 0.34375l-0.9375 0l0 2.390625l-2.375 0l0 -7.546875l3.3125 0q1.375 0 2.109375 0.703125q0.75 0.703125 0.75 1.890625zm-3.140625 0.6875q0.75 0 0.75 -0.6875q0 -0.6875 -0.75 -0.6875l-0.65625 0l0 1.375l0.65625 0zm6.1972656 -3.28125l0 4.25q0 0.53125 0.21875 0.84375q0.234375 0.296875 0.75 0.296875q0.515625 0 0.75 -0.296875q0.25 -0.3125 0.25 -0.84375l0 -4.25l2.359375 0l0 4.25q0 1.078125 -0.453125 1.84375q-0.4375 0.765625 -1.21875 1.15625q-0.78125 0.375 -1.734375 0.375q-0.96875 0 -1.703125 -0.375q-0.734375 -0.390625 -1.15625 -1.140625q-0.421875 -0.765625 -0.421875 -1.859375l0 -4.25l2.359375 0zm11.271301 0l0 1.875l-2.0 0l0 5.671875l-2.359375 0l0 -5.671875l-1.984375 0l0 -1.875l6.34375 0z" fill-rule="nonzero"/><path fill="#000000" fill-opacity="0.0" d="m675.3205 770.7979l0 25.001526l159.30872 0l0 -54.072388l74.360535 0" fill-rule="evenodd"/><path stroke="#191f2d" stroke-width="2.0" stroke-linejoin="round" stroke-linecap="butt" d="m675.3205 770.7979l0 25.001526l159.30872 0l0 -54.072388l62.360535 0" fill-rule="evenodd"/><path fill="#191f2d" stroke="#191f2d" stroke-width="2.0" stroke-linecap="butt" d="m896.98975 745.0305l9.076172 -3.3034668l-9.076172 -3.3034668z" fill-rule="evenodd"/><path fill="#000000" fill-opacity="0.0" d="m338.76376 173.05774l26.677185 -0.3464508" fill-rule="evenodd"/><path stroke="#ff9900" stroke-width="2.0" stroke-linejoin="round" stroke-linecap="butt" d="m350.76276 172.9019l14.678192 -0.1906128" fill-rule="evenodd"/><path fill="#ff9900" stroke="#ff9900" stroke-width="2.0" stroke-linecap="butt" d="m350.71988 169.59872l-9.032532 3.421051l9.118317 3.185318z" fill-rule="evenodd"/><path fill="#000000" fill-opacity="0.0" d="m644.90027 719.82153l78.17322 -16.0" fill-rule="evenodd"/><path stroke="#735c94" stroke-width="2.0" stroke-linejoin="round" stroke-linecap="butt" d="m656.65656 717.41534l66.41693 -13.593811" fill-rule="evenodd"/><path fill="#735c94" stroke="#735c94" stroke-width="2.0" stroke-linecap="butt" d="m655.99414 714.17896l-8.229431 5.0562744l9.55426 1.4164429z" fill-rule="evenodd"/><path fill="#ff7d6b" d="m49.908268 301.1926l123.52756 0l0 32.44095l-123.52756 0z" fill-rule="evenodd"/><path fill="#595959" d="m83.44009 308.76593q0 0.828125 -0.390625 1.5q-0.375 0.65625 -1.125 1.046875q-0.734375 0.390625 -1.78125 0.390625l-1.078125 0l0 2.765625l-2.734375 0l0 -8.6875l3.8125 0q1.59375 0 2.4375 0.8125q0.859375 0.8125 0.859375 2.171875zm-3.609375 0.796875q0.84375 0 0.84375 -0.796875q0 -0.796875 -0.84375 -0.796875l-0.765625 0l0 1.59375l0.765625 0zm7.194809 2.84375l2.625 0l0 2.0625l-5.359375 0l0 -8.6875l2.734375 0l0 6.625zm9.050186 0.75l-2.90625 0l-0.421875 1.3125l-2.859375 0l3.171875 -8.6875l3.140625 0l3.171875 8.6875l-2.875 0l-0.421875 -1.3125zm-0.671875 -2.046875l-0.78125 -2.421875l-0.78125 2.421875l1.5625 0zm12.918869 -5.328125l-3.109375 6.046875l0 2.640625l-2.734375 0l0 -2.640625l-3.109375 -6.046875l3.109375 0l1.390625 3.078125l1.390625 -3.078125l3.0625 0zm6.422699 4.234375q0.796875 0.1875 1.21875 0.765625q0.4375 0.5625 0.4375 1.3125q0 1.140625 -0.75 1.765625q-0.75 0.609375 -2.171875 0.609375l-4.546875 0l0 -8.6875l4.4375 0q1.3125 0 2.078125 0.578125q0.765625 0.578125 0.765625 1.6875q0 0.75 -0.40625 1.28125q-0.390625 0.515625 -1.0625 0.6875zm-3.078125 -0.84375l1.046875 0q0.375 0 0.546875 -0.140625q0.171875 -0.15625 0.171875 -0.46875q0 -0.3125 -0.171875 -0.46875q-0.171875 -0.15625 -0.546875 -0.15625l-1.046875 0l0 1.234375zm1.234375 3.109375q0.359375 0 0.53125 -0.140625q0.1875 -0.140625 0.1875 -0.453125q0 -0.625 -0.71875 -0.625l-1.234375 0l0 1.21875l1.234375 0zm7.1553497 0.125l2.625 0l0 2.0625l-5.359375 0l0 -8.6875l2.734375 0l0 6.625zm9.050179 0.75l-2.9062424 0l-0.421875 1.3125l-2.859375 0l3.171875 -8.6875l3.1406174 0l3.171875 8.6875l-2.875 0l-0.421875 -1.3125zm-0.671875 -2.046875l-0.7812424 -2.421875l-0.78125 2.421875l1.5624924 0zm7.981369 3.4375q-1.5625 0 -2.578125 -0.71875q-1.015625 -0.734375 -1.09375 -2.140625l2.890625 0q0.0625 0.75 0.671875 0.75q0.21875 0 0.359375 -0.109375q0.15625 -0.109375 0.15625 -0.328125q0 -0.296875 -0.328125 -0.484375q-0.328125 -0.203125 -1.03125 -0.4375q-0.828125 -0.296875 -1.375 -0.578125q-0.546875 -0.28125 -0.9375 -0.8125q-0.390625 -0.546875 -0.375 -1.40625q0 -0.84375 0.421875 -1.4375q0.4375 -0.59375 1.1875 -0.890625q0.765625 -0.3125 1.703125 -0.3125q1.59375 0 2.53125 0.734375q0.9375 0.734375 1.0 2.078125l-2.9375 0q-0.015625 -0.375 -0.1875 -0.53125q-0.171875 -0.15625 -0.40625 -0.15625q-0.171875 0 -0.296875 0.125q-0.109375 0.109375 -0.109375 0.3125q0 0.296875 0.328125 0.484375q0.328125 0.1875 1.046875 0.453125q0.8125 0.3125 1.34375 0.59375q0.53125 0.28125 0.921875 0.78125q0.40625 0.5 0.40625 1.265625q0 0.796875 -0.40625 1.4375q-0.390625 0.625 -1.140625 0.984375q-0.734375 0.34375 -1.765625 0.34375zm11.087921 -8.765625l0 2.15625l-2.3125 0l0 6.53125l-2.71875 0l0 -6.53125l-2.28125 0l0 -2.15625l7.3125 0z" fill-rule="nonzero"/><path fill="#595959" d="m92.97077 320.50156l0 2.15625l-3.40625 0l0 1.203125l2.453125 0l0 2.046875l-2.453125 0l0 3.28125l-2.734375 0l0 -8.6875l6.140625 0zm5.28714 8.6875l-1.640625 -3.109375l0 0l0 3.109375l-2.734375 0l0 -8.6875l4.046875 0q1.0625 0 1.8125 0.375q0.75 0.375 1.109375 1.03125q0.375 0.640625 0.375 1.4375q0 0.875 -0.484375 1.546875q-0.484375 0.671875 -1.390625 0.96875l1.890625 3.328125l-2.984375 0zm-1.640625 -4.9375l1.078125 0q0.390625 0 0.578125 -0.171875q0.203125 -0.171875 0.203125 -0.5625q0 -0.34375 -0.203125 -0.53125q-0.203125 -0.203125 -0.578125 -0.203125l-1.078125 0l0 1.46875zm11.061752 3.625l-2.90625 0l-0.421875 1.3125l-2.859375 0l3.171875 -8.6875l3.140625 0l3.171875 8.6875l-2.875 0l-0.421875 -1.3125zm-0.671875 -2.046875l-0.78125 -2.421875l-0.78125 2.421875l1.5625 0zm15.012619 -5.328125l0 8.6875l-2.703125 0l0 -4.328125l-1.34375 4.328125l-2.328125 0l-1.328125 -4.328125l0 4.328125l-2.734375 0l0 -8.6875l3.34375 0l1.90625 5.21875l1.875 -5.21875l3.3125 0zm3.9615326 2.171875l0 1.0625l2.6874924 0l0 2.0625l-2.6874924 0l0 1.21875l3.0624924 0l0 2.171875l-5.7968674 0l0 -8.6875l5.7968674 0l0 2.171875l-3.0624924 0zm7.491585 6.59375q-1.5625 0 -2.578125 -0.71875q-1.015625 -0.734375 -1.09375 -2.140625l2.890625 0q0.0625 0.75 0.671875 0.75q0.21875 0 0.359375 -0.109375q0.15625 -0.109375 0.15625 -0.328125q0 -0.296875 -0.328125 -0.484375q-0.328125 -0.203125 -1.03125 -0.4375q-0.828125 -0.296875 -1.375 -0.578125q-0.546875 -0.28125 -0.9375 -0.8125q-0.390625 -0.546875 -0.375 -1.40625q0 -0.84375 0.421875 -1.4375q0.4375 -0.59375 1.1875 -0.890625q0.765625 -0.3125 1.703125 -0.3125q1.59375 0 2.53125 0.734375q0.9375 0.734375 1.0 2.078125l-2.9375 0q-0.015625 -0.375 -0.1875 -0.53125q-0.171875 -0.15625 -0.40625 -0.15625q-0.171875 0 -0.296875 0.125q-0.109375 0.109375 -0.109375 0.3125q0 0.296875 0.328125 0.484375q0.328125 0.1875 1.046875 0.453125q0.8125 0.3125 1.34375 0.59375q0.53125 0.28125 0.921875 0.78125q0.40625 0.5 0.40625 1.265625q0 0.796875 -0.40625 1.4375q-0.390625 0.625 -1.140625 0.984375q-0.734375 0.34375 -1.765625 0.34375z" fill-rule="nonzero"/><path fill="#735c94" d="m534.7924 77.91587l116.315 0l0 32.44094l-116.315 0z" fill-rule="evenodd"/><path fill="#ffffff" d="m550.889 94.19072q0 -1.25 0.5 -2.234375q0.515625 -0.984375 1.46875 -1.53125q0.953125 -0.546875 2.234375 -0.546875q1.09375 0 1.96875 0.421875q0.875 0.40625 1.421875 1.171875q0.546875 0.75 0.71875 1.75l-2.796875 0q-0.203125 -0.421875 -0.5625 -0.65625q-0.34375 -0.234375 -0.796875 -0.234375q-0.671875 0 -1.0625 0.515625q-0.390625 0.5 -0.390625 1.34375q0 0.859375 0.390625 1.359375q0.390625 0.5 1.0625 0.5q0.453125 0 0.796875 -0.234375q0.359375 -0.234375 0.5625 -0.640625l2.796875 0q-0.171875 1.0 -0.71875 1.765625q-0.546875 0.75 -1.421875 1.171875q-0.875 0.40625 -1.96875 0.40625q-1.28125 0 -2.234375 -0.546875q-0.953125 -0.546875 -1.46875 -1.53125q-0.5 -0.984375 -0.5 -2.25zm13.411072 4.34375q-1.1875 0 -2.203125 -0.5625q-1.0 -0.5625 -1.59375 -1.546875q-0.578125 -1.0 -0.578125 -2.25q0 -1.25 0.578125 -2.25q0.59375 -1.0 1.59375 -1.546875q1.015625 -0.5625 2.203125 -0.5625q1.203125 0 2.203125 0.5625q1.0 0.546875 1.578125 1.546875q0.578125 1.0 0.578125 2.25q0 1.25 -0.578125 2.25q-0.578125 0.984375 -1.59375 1.546875q-1.0 0.5625 -2.1875 0.5625zm0 -2.484375q0.796875 0 1.21875 -0.5q0.4375 -0.515625 0.4375 -1.375q0 -0.875 -0.4375 -1.390625q-0.421875 -0.515625 -1.21875 -0.515625q-0.796875 0 -1.234375 0.515625q-0.421875 0.515625 -0.421875 1.390625q0 0.859375 0.421875 1.375q0.4375 0.5 1.234375 0.5zm13.47168 2.40625l-2.671875 0l-2.8125 -4.265625l0 4.265625l-2.671875 0l0 -8.5l2.671875 0l2.8125 4.34375l0 -4.34375l2.671875 0l0 8.5zm7.1918335 -8.5l0 2.109375l-3.328125 0l0 1.1875l2.390625 0l0 2.0l-2.390625 0l0 3.203125l-2.671875 0l0 -8.5l6.0 0zm3.5719604 0l0 8.5l-2.671875 0l0 -8.5l2.671875 0zm6.4108887 2.90625q-0.15625 -0.25 -0.453125 -0.390625q-0.28125 -0.140625 -0.6875 -0.140625q-0.765625 0 -1.1875 0.5q-0.421875 0.5 -0.421875 1.359375q0 1.0 0.46875 1.5q0.46875 0.484375 1.4375 0.484375q0.921875 0 1.484375 -0.75l-2.125 0l0 -1.875l4.328125 0l0 2.65625q-0.546875 0.953125 -1.515625 1.640625q-0.96875 0.671875 -2.453125 0.671875q-1.328125 0 -2.3125 -0.546875q-0.96875 -0.546875 -1.5 -1.53125q-0.515625 -0.984375 -0.515625 -2.25q0 -1.25 0.515625 -2.234375q0.53125 -0.984375 1.5 -1.53125q0.96875 -0.546875 2.28125 -0.546875q1.671875 0 2.71875 0.8125q1.046875 0.796875 1.234375 2.171875l-2.796875 0zm5.133423 5.6875q-0.703125 0 -1.125 -0.359375q-0.40625 -0.375 -0.40625 -0.953125q0 -0.5625 0.40625 -0.9375q0.421875 -0.390625 1.125 -0.390625q0.6875 0 1.09375 0.390625q0.421875 0.375 0.421875 0.9375q0 0.578125 -0.421875 0.953125q-0.40625 0.359375 -1.09375 0.359375zm8.437439 -8.59375l0 5.484375q0 1.53125 -0.796875 2.3125q-0.796875 0.78125 -2.25 0.78125q-1.546875 0 -2.453125 -0.84375q-0.90625 -0.859375 -0.90625 -2.484375l2.625 0q0 0.515625 0.15625 0.734375q0.171875 0.203125 0.46875 0.203125q0.234375 0 0.359375 -0.15625q0.140625 -0.15625 0.140625 -0.546875l0 -5.484375l2.65625 0zm4.470642 8.578125q-1.515625 0 -2.515625 -0.703125q-0.984375 -0.71875 -1.0625 -2.09375l2.828125 0q0.0625 0.734375 0.640625 0.734375q0.21875 0 0.359375 -0.109375q0.15625 -0.109375 0.15625 -0.3125q0 -0.3125 -0.328125 -0.484375q-0.3125 -0.1875 -1.0 -0.4375q-0.8125 -0.28125 -1.359375 -0.546875q-0.53125 -0.28125 -0.921875 -0.8125q-0.375 -0.53125 -0.359375 -1.359375q0 -0.828125 0.421875 -1.40625q0.4375 -0.59375 1.171875 -0.890625q0.734375 -0.296875 1.65625 -0.296875q1.5625 0 2.484375 0.71875q0.921875 0.71875 0.96875 2.03125l-2.875 0q-0.015625 -0.359375 -0.1875 -0.515625q-0.15625 -0.15625 -0.40625 -0.15625q-0.15625 0 -0.265625 0.109375q-0.109375 0.109375 -0.109375 0.328125q0 0.28125 0.3125 0.46875q0.328125 0.1875 1.015625 0.453125q0.8125 0.296875 1.328125 0.578125q0.515625 0.265625 0.890625 0.765625q0.390625 0.484375 0.390625 1.234375q0 0.78125 -0.390625 1.40625q-0.375 0.609375 -1.109375 0.953125q-0.71875 0.34375 -1.734375 0.34375zm8.312561 0q-1.1875 0 -2.203125 -0.5625q-1.0 -0.5625 -1.59375 -1.546875q-0.578125 -1.0 -0.578125 -2.25q0 -1.25 0.578125 -2.25q0.59375 -1.0 1.59375 -1.546875q1.015625 -0.5625 2.203125 -0.5625q1.203125 0 2.203125 0.5625q1.0 0.546875 1.578125 1.546875q0.578125 1.0 0.578125 2.25q0 1.25 -0.578125 2.25q-0.578125 0.984375 -1.59375 1.546875q-1.0 0.5625 -2.1875 0.5625zm0 -2.484375q0.796875 0 1.21875 -0.5q0.4375 -0.515625 0.4375 -1.375q0 -0.875 -0.4375 -1.390625q-0.421875 -0.515625 -1.21875 -0.515625q-0.796875 0 -1.234375 0.515625q-0.421875 0.515625 -0.421875 1.390625q0 0.859375 0.421875 1.375q0.4375 0.5 1.234375 0.5zm13.47168 2.40625l-2.671875 0l-2.8125 -4.265625l0 4.265625l-2.671875 0l0 -8.5l2.671875 0l2.8125 4.34375l0 -4.34375l2.671875 0l0 8.5z" fill-rule="nonzero"/><path fill="#735c94" d="m49.908146 248.84514l123.52756 0l0 32.440964l-123.52756 0z" fill-rule="evenodd"/><path fill="#ffffff" d="m67.641464 269.46375q-1.515625 0 -2.515625 -0.703125q-0.984375 -0.71875 -1.0625 -2.09375l2.828125 0q0.0625 0.734375 0.640625 0.734375q0.21875 0 0.359375 -0.109375q0.15625 -0.109375 0.15625 -0.3125q0 -0.3125 -0.328125 -0.484375q-0.3125 -0.1875 -1.0 -0.4375q-0.8125 -0.28125 -1.359375 -0.546875q-0.53125 -0.28125 -0.921875 -0.8125q-0.375 -0.53125 -0.359375 -1.359375q0 -0.828125 0.421875 -1.40625q0.4375 -0.59375 1.171875 -0.890625q0.734375 -0.296875 1.65625 -0.296875q1.5625 0 2.484375 0.71875q0.921875 0.71875 0.96875 2.03125l-2.875 0q-0.015625 -0.359375 -0.1875 -0.515625q-0.15625 -0.15625 -0.40625 -0.15625q-0.15625 0 -0.265625 0.109375q-0.109375 0.109375 -0.109375 0.328125q0 0.28125 0.3125 0.46875q0.328125 0.1875 1.015625 0.453125q0.8125 0.296875 1.328125 0.578125q0.515625 0.265625 0.890625 0.765625q0.390625 0.484375 0.390625 1.234375q0 0.78125 -0.390625 1.40625q-0.375 0.609375 -1.109375 0.953125q-0.71875 0.34375 -1.734375 0.34375zm6.843796 -6.453125l0 1.046875l2.640625 0l0 2.0l-2.640625 0l0 1.203125l3.0 0l0 2.125l-5.671875 0l0 -8.5l5.671875 0l0 2.125l-3.0 0zm10.672043 -2.125l0 2.109375l-2.25 0l0 6.390625l-2.65625 0l0 -6.390625l-2.234375 0l0 -2.109375l7.140625 0zm7.3920593 0l0 2.109375l-2.25 0l0 6.390625l-2.65625 0l0 -6.390625l-2.234375 0l0 -2.109375l7.140625 0zm3.3920593 0l0 8.5l-2.671875 0l0 -8.5l2.671875 0zm9.348404 8.5l-2.671875 0l-2.8125 -4.265625l0 4.265625l-2.671875 0l0 -8.5l2.671875 0l2.8125 4.34375l0 -4.34375l2.671875 0l0 8.5zm6.410568 -5.59375q-0.15625 -0.25 -0.453125 -0.390625q-0.28125 -0.140625 -0.6875 -0.140625q-0.765625 0 -1.1875 0.5q-0.421875 0.5 -0.421875 1.359375q0 1.0 0.46875 1.5q0.46875 0.484375 1.4375 0.484375q0.921875 0 1.484375 -0.75l-2.125 0l0 -1.875l4.328125 0l0 2.65625q-0.546875 0.953125 -1.515625 1.640625q-0.96875 0.671875 -2.453125 0.671875q-1.328125 0 -2.3125 -0.546875q-0.96875 -0.546875 -1.5 -1.53125q-0.515625 -0.984375 -0.515625 -2.25q0 -1.25 0.515625 -2.234375q0.53125 -0.984375 1.5 -1.53125q0.96875 -0.546875 2.28125 -0.546875q1.671875 0 2.71875 0.8125q1.046875 0.796875 1.234375 2.171875l-2.796875 0zm7.133438 5.671875q-1.515625 0 -2.515625 -0.703125q-0.984375 -0.71875 -1.0625 -2.09375l2.828125 0q0.0625 0.734375 0.640625 0.734375q0.21875 0 0.359375 -0.109375q0.15625 -0.109375 0.15625 -0.3125q0 -0.3125 -0.328125 -0.484375q-0.3125 -0.1875 -1.0 -0.4375q-0.8125 -0.28125 -1.359375 -0.546875q-0.53125 -0.28125 -0.921875 -0.8125q-0.375 -0.53125 -0.359375 -1.359375q0 -0.828125 0.421875 -1.40625q0.4375 -0.59375 1.171875 -0.890625q0.734375 -0.296875 1.65625 -0.296875q1.5625 0 2.484375 0.71875q0.921875 0.71875 0.96875 2.03125l-2.875 0q-0.015625 -0.359375 -0.1875 -0.515625q-0.15625 -0.15625 -0.40625 -0.15625q-0.15625 0 -0.265625 0.109375q-0.109375 0.109375 -0.109375 0.328125q0 0.28125 0.3125 0.46875q0.328125 0.1875 1.015625 0.453125q0.8125 0.296875 1.328125 0.578125q0.515625 0.265625 0.890625 0.765625q0.390625 0.484375 0.390625 1.234375q0 0.78125 -0.390625 1.40625q-0.375 0.609375 -1.109375 0.953125q-0.71875 0.34375 -1.734375 0.34375zm5.500046 0.015625q-0.703125 0 -1.125 -0.359375q-0.40625 -0.375 -0.40625 -0.953125q0 -0.5625 0.40625 -0.9375q0.421875 -0.390625 1.125 -0.390625q0.6875 0 1.09375 0.390625q0.421875 0.375 0.421875 0.9375q0 0.578125 -0.421875 0.953125q-0.40625 0.359375 -1.09375 0.359375zm8.437408 -8.59375l0 5.484375q0 1.53125 -0.796875 2.3125q-0.796875 0.78125 -2.25 0.78125q-1.546875 0 -2.453125 -0.84375q-0.90625 -0.859375 -0.90625 -2.484375l2.625 0q0 0.515625 0.15625 0.734375q0.171875 0.203125 0.46875 0.203125q0.234375 0 0.359375 -0.15625q0.140625 -0.15625 0.140625 -0.546875l0 -5.484375l2.65625 0zm4.4706726 8.578125q-1.515625 0 -2.515625 -0.703125q-0.984375 -0.71875 -1.0625 -2.09375l2.828125 0q0.0625 0.734375 0.640625 0.734375q0.21875 0 0.359375 -0.109375q0.15625 -0.109375 0.15625 -0.3125q0 -0.3125 -0.328125 -0.484375q-0.3125 -0.1875 -1.0 -0.4375q-0.8125 -0.28125 -1.359375 -0.546875q-0.53125 -0.28125 -0.921875 -0.8125q-0.375 -0.53125 -0.359375 -1.359375q0 -0.828125 0.421875 -1.40625q0.4375 -0.59375 1.171875 -0.890625q0.734375 -0.296875 1.65625 -0.296875q1.5625 0 2.484375 0.71875q0.921875 0.71875 0.96875 2.03125l-2.875 0q-0.015625 -0.359375 -0.1875 -0.515625q-0.15625 -0.15625 -0.40625 -0.15625q-0.15625 0 -0.265625 0.109375q-0.109375 0.109375 -0.109375 0.328125q0 0.28125 0.3125 0.46875q0.328125 0.1875 1.015625 0.453125q0.8125 0.296875 1.328125 0.578125q0.515625 0.265625 0.890625 0.765625q0.390625 0.484375 0.390625 1.234375q0 0.78125 -0.390625 1.40625q-0.375 0.609375 -1.109375 0.953125q-0.71875 0.34375 -1.734375 0.34375zm8.312546 0q-1.1875 0 -2.203125 -0.5625q-1.0 -0.5625 -1.59375 -1.546875q-0.578125 -1.0 -0.578125 -2.25q0 -1.25 0.578125 -2.25q0.59375 -1.0 1.59375 -1.546875q1.015625 -0.5625 2.203125 -0.5625q1.203125 0 2.203125 0.5625q1.0 0.546875 1.578125 1.546875q0.578125 1.0 0.578125 2.25q0 1.25 -0.578125 2.25q-0.578125 0.984375 -1.59375 1.546875q-1.0 0.5625 -2.1875 0.5625zm0 -2.484375q0.796875 0 1.21875 -0.5q0.4375 -0.515625 0.4375 -1.375q0 -0.875 -0.4375 -1.390625q-0.421875 -0.515625 -1.21875 -0.515625q-0.796875 0 -1.234375 0.515625q-0.421875 0.515625 -0.421875 1.390625q0 0.859375 0.421875 1.375q0.4375 0.5 1.234375 0.5zm13.471695 2.40625l-2.671875 0l-2.8125 -4.265625l0 4.265625l-2.671875 0l0 -8.5l2.671875 0l2.8125 4.34375l0 -4.34375l2.671875 0l0 8.5z" fill-rule="nonzero"/><path fill="#0f9967" d="m534.7924 264.77374l116.315 0l0 30.740143l-116.315 0z" fill-rule="evenodd"/><path fill="#fcf2ea" d="m567.69617 275.9638l0 8.5l-2.65625 0l0 -4.234375l-1.296875 4.234375l-2.28125 0l-1.3125 -4.234375l0 4.234375l-2.671875 0l0 -8.5l3.265625 0l1.875 5.109375l1.828125 -5.109375l3.25 0zm6.6464844 7.21875l-2.828125 0l-0.421875 1.28125l-2.796875 0l3.109375 -8.5l3.078125 0l3.09375 8.5l-2.8125 0l-0.421875 -1.28125zm-0.640625 -2.0l-0.78125 -2.375l-0.765625 2.375l1.546875 0zm12.635437 -5.21875l-3.046875 5.921875l0 2.578125l-2.671875 0l0 -2.578125l-3.046875 -5.921875l3.046875 0l1.359375 3.015625l1.359375 -3.015625l3.0 0zm6.04126 7.21875l-2.828125 0l-0.421875 1.28125l-2.796875 0l3.109375 -8.5l3.078125 0l3.09375 8.5l-2.8125 0l-0.421875 -1.28125zm-0.640625 -2.0l-0.78125 -2.375l-0.765625 2.375l1.546875 0zm14.362976 -5.21875l0 8.5l-2.65625 0l0 -3.3125l-2.53125 0l0 3.3125l-2.671875 0l0 -8.5l2.671875 0l0 3.0625l2.53125 0l0 -3.0625l2.65625 0zm5.3413086 8.578125q-1.1875 0 -2.203125 -0.5625q-1.0 -0.5625 -1.59375 -1.546875q-0.578125 -1.0 -0.578125 -2.25q0 -1.25 0.578125 -2.25q0.59375 -1.0 1.59375 -1.546875q1.015625 -0.5625 2.203125 -0.5625q1.203125 0 2.203125 0.5625q1.0 0.546875 1.578125 1.546875q0.578125 1.0 0.578125 2.25q0 1.25 -0.578125 2.25q-0.578125 0.984375 -1.59375 1.546875q-1.0 0.5625 -2.1875 0.5625zm0 -2.484375q0.796875 0 1.21875 -0.5q0.4375 -0.515625 0.4375 -1.375q0 -0.875 -0.4375 -1.390625q-0.421875 -0.515625 -1.21875 -0.515625q-0.796875 0 -1.234375 0.515625q-0.421875 0.515625 -0.421875 1.390625q0 0.859375 0.421875 1.375q0.4375 0.5 1.234375 0.5zm8.643555 2.484375q-1.515625 0 -2.515625 -0.703125q-0.984375 -0.71875 -1.0625 -2.09375l2.828125 0q0.0625 0.734375 0.640625 0.734375q0.21875 0 0.359375 -0.109375q0.15625 -0.109375 0.15625 -0.3125q0 -0.3125 -0.328125 -0.484375q-0.3125 -0.1875 -1.0 -0.4375q-0.8125 -0.28125 -1.359375 -0.546875q-0.53125 -0.28125 -0.921875 -0.8125q-0.375 -0.53125 -0.359375 -1.359375q0 -0.828125 0.421875 -1.40625q0.4375 -0.59375 1.171875 -0.890625q0.734375 -0.296875 1.65625 -0.296875q1.5625 0 2.484375 0.71875q0.921875 0.71875 0.96875 2.03125l-2.875 0q-0.015625 -0.359375 -0.1875 -0.515625q-0.15625 -0.15625 -0.40625 -0.15625q-0.15625 0 -0.265625 0.109375q-0.109375 0.109375 -0.109375 0.328125q0 0.28125 0.3125 0.46875q0.328125 0.1875 1.015625 0.453125q0.8125 0.296875 1.328125 0.578125q0.515625 0.265625 0.890625 0.765625q0.390625 0.484375 0.390625 1.234375q0 0.78125 -0.390625 1.40625q-0.375 0.609375 -1.109375 0.953125q-0.71875 0.34375 -1.734375 0.34375zm10.843811 -8.578125l0 2.109375l-2.25 0l0 6.390625l-2.65625 0l0 -6.390625l-2.234375 0l0 -2.109375l7.140625 0z" fill-rule="nonzero"/><path fill="#0f9967" d="m534.7924 223.65807l116.315 0l0 30.740158l-116.315 0z" fill-rule="evenodd"/><path fill="#fcf2ea" d="m547.9265 237.3169q0.03125 -1.421875 0.828125 -2.171875q0.796875 -0.765625 2.265625 -0.765625q0.9375 0 1.609375 0.328125q0.671875 0.328125 1.015625 0.875q0.34375 0.546875 0.34375 1.25q0 0.84375 -0.40625 1.3125q-0.390625 0.46875 -0.875 0.640625l0 0.046875q1.4375 0.546875 1.4375 2.0q0 0.78125 -0.359375 1.375q-0.359375 0.578125 -1.03125 0.90625q-0.65625 0.3125 -1.578125 0.3125q-1.546875 0 -2.4375 -0.734375q-0.890625 -0.75 -0.921875 -2.328125l2.59375 0q-0.015625 0.421875 0.125 0.65625q0.15625 0.21875 0.53125 0.21875q0.21875 0 0.359375 -0.15625q0.140625 -0.171875 0.140625 -0.4375q0 -0.328125 -0.21875 -0.5q-0.21875 -0.1875 -0.75 -0.1875l-0.453125 0l0 -2.140625l0.4375 0q0.8125 0.046875 0.8125 -0.65625q0 -0.296875 -0.125 -0.4375q-0.125 -0.140625 -0.3125 -0.140625q-0.453125 0 -0.453125 0.734375l-2.578125 0zm10.973755 -2.46875q1.328125 0 2.328125 0.546875q1.0 0.53125 1.546875 1.5q0.546875 0.953125 0.546875 2.1875q0 1.203125 -0.546875 2.1875q-0.546875 0.96875 -1.546875 1.53125q-1.0 0.546875 -2.328125 0.546875l-3.546875 0l0 -8.5l3.546875 0zm-0.234375 6.125q0.890625 0 1.421875 -0.484375q0.53125 -0.5 0.53125 -1.40625q0 -0.921875 -0.53125 -1.40625q-0.53125 -0.5 -1.421875 -0.5l-0.640625 0l0 3.796875l0.640625 0zm8.931702 2.453125q-1.515625 0 -2.515625 -0.703125q-0.984375 -0.71875 -1.0625 -2.09375l2.828125 0q0.0625 0.734375 0.640625 0.734375q0.21875 0 0.359375 -0.109375q0.15625 -0.109375 0.15625 -0.3125q0 -0.3125 -0.328125 -0.484375q-0.3125 -0.1875 -1.0 -0.4375q-0.8125 -0.28125 -1.359375 -0.546875q-0.53125 -0.28125 -0.921875 -0.8125q-0.375 -0.53125 -0.359375 -1.359375q0 -0.828125 0.421875 -1.40625q0.4375 -0.59375 1.171875 -0.890625q0.734375 -0.296875 1.65625 -0.296875q1.5625 0 2.484375 0.71875q0.921875 0.71875 0.96875 2.03125l-2.875 0q-0.015625 -0.359375 -0.1875 -0.515625q-0.15625 -0.15625 -0.40625 -0.15625q-0.15625 0 -0.265625 0.109375q-0.109375 0.109375 -0.109375 0.328125q0 0.28125 0.3125 0.46875q0.328125 0.1875 1.015625 0.453125q0.8125 0.296875 1.328125 0.578125q0.515625 0.265625 0.890625 0.765625q0.390625 0.484375 0.390625 1.234375q0 0.78125 -0.390625 1.40625q-0.375 0.609375 -1.109375 0.953125q-0.71875 0.34375 -1.734375 0.34375zm16.430664 -8.578125l0 8.5l-2.65625 0l0 -4.234375l-1.296875 4.234375l-2.28125 0l-1.3125 -4.234375l0 4.234375l-2.671875 0l0 -8.5l3.265625 0l1.875 5.109375l1.828125 -5.109375l3.25 0zm6.6464844 7.21875l-2.828125 0l-0.421875 1.28125l-2.796875 0l3.109375 -8.5l3.078125 0l3.09375 8.5l-2.8125 0l-0.421875 -1.28125zm-0.640625 -2.0l-0.78125 -2.375l-0.765625 2.375l1.546875 0zm9.885437 3.28125l-1.5625 -2.203125l-1.296875 2.203125l-3.03125 0l2.796875 -4.375l-2.921875 -4.125l3.15625 0l1.5 2.125l1.25 -2.125l3.03125 0l-2.75 4.296875l2.984375 4.203125l-3.15625 0zm13.645569 -8.5l0 8.5l-2.65625 0l0 -3.3125l-2.53125 0l0 3.3125l-2.671875 0l0 -8.5l2.671875 0l0 3.0625l2.53125 0l0 -3.0625l2.65625 0zm5.3413086 8.578125q-1.1875 0 -2.203125 -0.5625q-1.0 -0.5625 -1.59375 -1.546875q-0.578125 -1.0 -0.578125 -2.25q0 -1.25 0.578125 -2.25q0.59375 -1.0 1.59375 -1.546875q1.015625 -0.5625 2.203125 -0.5625q1.203125 0 2.203125 0.5625q1.0 0.546875 1.578125 1.546875q0.578125 1.0 0.578125 2.25q0 1.25 -0.578125 2.25q-0.578125 0.984375 -1.59375 1.546875q-1.0 0.5625 -2.1875 0.5625zm0 -2.484375q0.796875 0 1.21875 -0.5q0.4375 -0.515625 0.4375 -1.375q0 -0.875 -0.4375 -1.390625q-0.421875 -0.515625 -1.21875 -0.515625q-0.796875 0 -1.234375 0.515625q-0.421875 0.515625 -0.421875 1.390625q0 0.859375 0.421875 1.375q0.4375 0.5 1.234375 0.5zm8.643555 2.484375q-1.515625 0 -2.515625 -0.703125q-0.984375 -0.71875 -1.0625 -2.09375l2.828125 0q0.0625 0.734375 0.640625 0.734375q0.21875 0 0.359375 -0.109375q0.15625 -0.109375 0.15625 -0.3125q0 -0.3125 -0.328125 -0.484375q-0.3125 -0.1875 -1.0 -0.4375q-0.8125 -0.28125 -1.359375 -0.546875q-0.53125 -0.28125 -0.921875 -0.8125q-0.375 -0.53125 -0.359375 -1.359375q0 -0.828125 0.421875 -1.40625q0.4375 -0.59375 1.171875 -0.890625q0.734375 -0.296875 1.65625 -0.296875q1.5625 0 2.484375 0.71875q0.921875 0.71875 0.96875 2.03125l-2.875 0q-0.015625 -0.359375 -0.1875 -0.515625q-0.15625 -0.15625 -0.40625 -0.15625q-0.15625 0 -0.265625 0.109375q-0.109375 0.109375 -0.109375 0.328125q0 0.28125 0.3125 0.46875q0.328125 0.1875 1.015625 0.453125q0.8125 0.296875 1.328125 0.578125q0.515625 0.265625 0.890625 0.765625q0.390625 0.484375 0.390625 1.234375q0 0.78125 -0.390625 1.40625q-0.375 0.609375 -1.109375 0.953125q-0.71875 0.34375 -1.734375 0.34375zm10.843811 -8.578125l0 2.109375l-2.25 0l0 6.390625l-2.65625 0l0 -6.390625l-2.234375 0l0 -2.109375l7.140625 0z" fill-rule="nonzero"/><path fill="#0f9967" d="m350.10938 77.914696l116.31494 0l0 32.44095l-116.31494 0z" fill-rule="evenodd"/><path fill="#fcf2ea" d="m385.8223 96.439545l2.5625 0l0 2.015625l-5.234375 0l0 -8.5l2.671875 0l0 6.484375zm8.853302 0.734375l-2.828125 0l-0.421875 1.28125l-2.796875 0l3.109375 -8.5l3.078125 0l3.09375 8.5l-2.8125 0l-0.421875 -1.28125zm-0.640625 -2.0l-0.78125 -2.375l-0.765625 2.375l1.546875 0zm7.072937 -5.21875l0 4.796875q0 0.578125 0.25 0.921875q0.265625 0.34375 0.84375 0.34375q0.578125 0 0.84375 -0.34375q0.28125 -0.34375 0.28125 -0.921875l0 -4.796875l2.65625 0l0 4.796875q0 1.203125 -0.515625 2.0625q-0.5 0.859375 -1.375 1.296875q-0.875 0.421875 -1.953125 0.421875q-1.078125 0 -1.921875 -0.421875q-0.828125 -0.4375 -1.296875 -1.28125q-0.46875 -0.859375 -0.46875 -2.078125l0 -4.796875l2.65625 0zm14.174927 8.5l-2.671875 0l-2.8125 -4.265625l0 4.265625l-2.671875 0l0 -8.5l2.671875 0l2.8125 4.34375l0 -4.34375l2.671875 0l0 8.5zm0.9574585 -4.265625q0 -1.25 0.5 -2.234375q0.515625 -0.984375 1.46875 -1.53125q0.953125 -0.546875 2.234375 -0.546875q1.09375 0 1.96875 0.421875q0.875 0.40625 1.421875 1.171875q0.546875 0.75 0.71875 1.75l-2.796875 0q-0.203125 -0.421875 -0.5625 -0.65625q-0.34375 -0.234375 -0.796875 -0.234375q-0.671875 0 -1.0625 0.515625q-0.390625 0.5 -0.390625 1.34375q0 0.859375 0.390625 1.359375q0.390625 0.5 1.0625 0.5q0.453125 0 0.796875 -0.234375q0.359375 -0.234375 0.5625 -0.640625l2.796875 0q-0.171875 1.0 -0.71875 1.765625q-0.546875 0.75 -1.421875 1.171875q-0.875 0.40625 -1.96875 0.40625q-1.28125 0 -2.234375 -0.546875q-0.953125 -0.546875 -1.46875 -1.53125q-0.5 -0.984375 -0.5 -2.25zm17.129791 -4.234375l0 8.5l-2.65625 0l0 -3.3125l-2.53125 0l0 3.3125l-2.671875 0l0 -8.5l2.671875 0l0 3.0625l2.53125 0l0 -3.0625l2.65625 0z" fill-rule="nonzero"/><path fill="#000000" fill-opacity="0.0" d="m466.42432 94.13517l68.37799 0" fill-rule="evenodd"/><path stroke="#735c94" stroke-width="2.0" stroke-linejoin="round" stroke-linecap="butt" stroke-dasharray="8.0,6.0" d="m478.42435 94.13517l56.37796 0" fill-rule="evenodd"/><path fill="#735c94" stroke="#735c94" stroke-width="2.0" stroke-linecap="butt" d="m478.42435 90.8317l-9.076202 3.3034668l9.076202 3.3034668z" fill-rule="evenodd"/><path fill="#ff9900" d="m365.42984 172.72643l42.834656 -42.83464l42.834625 42.83464l-42.834625 42.83464z" fill-rule="evenodd"/><path fill="#000000" fill-opacity="0.0" d="m353.3243 156.83989l109.22836 0l0 32.44095l-109.22836 0z" fill-rule="evenodd"/><path fill="#ffffff" d="m390.18405 161.68036l0 2.109375l-3.328125 0l0 1.1875l2.390625 0l0 2.0l-2.390625 0l0 3.203125l-2.671875 0l0 -8.5l6.0 0zm6.900055 0l0 2.109375l-3.328125 0l0 1.1875l2.390625 0l0 2.0l-2.390625 0l0 3.203125l-2.671875 0l0 -8.5l6.0 0zm11.118805 0l0 8.5l-2.65625 0l0 -4.234375l-1.296875 4.234375l-2.28125 0l-1.3125 -4.234375l0 4.234375l-2.671875 0l0 -8.5l3.265625 0l1.875 5.109375l1.828125 -5.109375l3.25 0zm8.146454 2.921875q0 0.796875 -0.375 1.453125q-0.375 0.65625 -1.09375 1.046875q-0.71875 0.375 -1.765625 0.375l-1.046875 0l0 2.703125l-2.671875 0l0 -8.5l3.71875 0q1.5625 0 2.390625 0.796875q0.84375 0.796875 0.84375 2.125zm-3.53125 0.78125q0.828125 0 0.828125 -0.78125q0 -0.78125 -0.828125 -0.78125l-0.75 0l0 1.5625l0.75 0zm7.0380554 -1.578125l0 1.046875l2.640625 0l0 2.0l-2.640625 0l0 1.203125l3.0 0l0 2.125l-5.671875 0l0 -8.5l5.671875 0l0 2.125l-3.0 0zm9.218933 0.78125q-0.15625 -0.25 -0.453125 -0.390625q-0.28125 -0.140625 -0.6875 -0.140625q-0.765625 0 -1.1875 0.5q-0.421875 0.5 -0.421875 1.359375q0 1.0 0.46875 1.5q0.46875 0.484375 1.4375 0.484375q0.921875 0 1.484375 -0.75l-2.125 0l0 -1.875l4.328125 0l0 2.65625q-0.546875 0.953125 -1.515625 1.640625q-0.96875 0.671875 -2.453125 0.671875q-1.328125 0 -2.3125 -0.546875q-0.96875 -0.546875 -1.5 -1.53125q-0.515625 -0.984375 -0.515625 -2.25q0 -1.25 0.515625 -2.234375q0.53125 -0.984375 1.5 -1.53125q0.96875 -0.546875 2.28125 -0.546875q1.671875 0 2.71875 0.8125q1.046875 0.796875 1.234375 2.171875l-2.796875 0z" fill-rule="nonzero"/><path fill="#ffffff" d="m385.55115 179.00224q0 0.796875 -0.375 1.453125q-0.375 0.65625 -1.09375 1.046875q-0.71875 0.375 -1.765625 0.375l-1.046875 0l0 2.703125l-2.671875 0l0 -8.5l3.71875 0q1.5625 0 2.390625 0.796875q0.84375 0.796875 0.84375 2.125zm-3.53125 0.78125q0.828125 0 0.828125 -0.78125q0 -0.78125 -0.828125 -0.78125l-0.75 0l0 1.5625l0.75 0zm8.64743 4.796875l-1.59375 -3.046875l-0.015625 0l0 3.046875l-2.671875 0l0 -8.5l3.96875 0q1.03125 0 1.765625 0.375q0.734375 0.359375 1.09375 1.0q0.359375 0.625 0.359375 1.40625q0 0.859375 -0.46875 1.515625q-0.46875 0.65625 -1.359375 0.953125l1.84375 3.25l-2.921875 0zm-1.609375 -4.828125l1.046875 0q0.390625 0 0.578125 -0.171875q0.203125 -0.171875 0.203125 -0.546875q0 -0.328125 -0.203125 -0.515625q-0.203125 -0.203125 -0.578125 -0.203125l-1.046875 0l0 1.4375zm8.04007 -1.546875l0 1.046875l2.640625 0l0 2.0l-2.640625 0l0 1.203125l3.0 0l0 2.125l-5.671875 0l0 -8.5l5.671875 0l0 2.125l-3.0 0zm7.3282776 6.453125q-1.515625 0 -2.515625 -0.703125q-0.984375 -0.71875 -1.0625 -2.09375l2.828125 0q0.0625 0.734375 0.640625 0.734375q0.21875 0 0.359375 -0.109375q0.15625 -0.109375 0.15625 -0.3125q0 -0.3125 -0.328125 -0.484375q-0.3125 -0.1875 -1.0 -0.4375q-0.8125 -0.28125 -1.359375 -0.546875q-0.53125 -0.28125 -0.921875 -0.8125q-0.375 -0.53125 -0.359375 -1.359375q0 -0.828125 0.421875 -1.40625q0.4375 -0.59375 1.171875 -0.890625q0.734375 -0.296875 1.65625 -0.296875q1.5625 0 2.484375 0.71875q0.921875 0.71875 0.96875 2.03125l-2.875 0q-0.015625 -0.359375 -0.1875 -0.515625q-0.15625 -0.15625 -0.40625 -0.15625q-0.15625 0 -0.265625 0.109375q-0.109375 0.109375 -0.109375 0.328125q0 0.28125 0.3125 0.46875q0.328125 0.1875 1.015625 0.453125q0.8125 0.296875 1.328125 0.578125q0.515625 0.265625 0.890625 0.765625q0.390625 0.484375 0.390625 1.234375q0 0.78125 -0.390625 1.40625q-0.375 0.609375 -1.109375 0.953125q-0.71875 0.34375 -1.734375 0.34375zm6.843811 -6.453125l0 1.046875l2.640625 0l0 2.0l-2.640625 0l0 1.203125l3.0 0l0 2.125l-5.671875 0l0 -8.5l5.671875 0l0 2.125l-3.0 0zm12.156403 6.375l-2.671875 0l-2.8125 -4.265625l0 4.265625l-2.671875 0l0 -8.5l2.671875 0l2.8125 4.34375l0 -4.34375l2.671875 0l0 8.5zm7.8637085 -8.5l0 2.109375l-2.25 0l0 6.390625l-2.65625 0l0 -6.390625l-2.234375 0l0 -2.109375l7.140625 0zm3.3920593 -0.78125q1.328125 0 2.140625 0.671875q0.8125 0.671875 0.8125 1.953125q0 1.046875 -0.71875 1.703125q-0.71875 0.640625 -1.859375 0.671875l-0.078125 0.84375l-2.34375 0l-0.078125 -2.53125l1.0 0q0.71875 0 1.09375 -0.15625q0.375 -0.15625 0.375 -0.515625q0 -0.21875 -0.109375 -0.34375q-0.109375 -0.125 -0.3125 -0.125q-0.234375 0 -0.359375 0.15625q-0.109375 0.140625 -0.109375 0.375l-2.5 0q-0.03125 -0.734375 0.296875 -1.34375q0.328125 -0.625 1.015625 -0.984375q0.703125 -0.375 1.734375 -0.375zm-0.84375 9.375q-0.6875 0 -1.109375 -0.359375q-0.421875 -0.375 -0.421875 -0.953125q0 -0.5625 0.421875 -0.9375q0.421875 -0.390625 1.109375 -0.390625q0.6875 0 1.109375 0.390625q0.421875 0.375 0.421875 0.9375q0 0.578125 -0.421875 0.953125q-0.421875 0.359375 -1.109375 0.359375z" fill-rule="nonzero"/><path fill="#e06666" d="m49.908268 353.53873l0 0c0 -5.79834E-4 4.6157837E-4 -0.0010375977 0.001033783 -0.0010375977l123.77849 0.0010375977c2.746582E-4 0 5.493164E-4 9.1552734E-5 7.324219E-4 2.746582E-4c1.9836426E-4 2.1362305E-4 3.0517578E-4 4.5776367E-4 3.0517578E-4 7.324219E-4l-0.0010375977 32.43991c0 5.79834E-4 -4.5776367E-4 0.0010375977 -0.0010223389 0.0010375977l-123.7785 -0.0010375977l0 0c-5.683899E-4 0 -0.0010299683 -4.5776367E-4 -0.0010299683 -0.0010070801z" fill-rule="evenodd"/><path fill="#ffffff" d="m94.04361 365.77917l0 2.109375l-3.328125 0l0 1.1875l2.390625 0l0 2.0l-2.390625 0l0 3.203125l-2.671875 0l0 -8.5l6.0 0zm6.900055 0l0 2.109375l-3.328125 0l0 1.1875l2.390625 0l0 2.0l-2.390625 0l0 3.203125l-2.671875 0l0 -8.5l6.0 0zm11.118805 0l0 8.5l-2.65625 0l0 -4.234375l-1.296875 4.234375l-2.28125 0l-1.3125 -4.234375l0 4.234375l-2.671875 0l0 -8.5l3.265625 0l1.875 5.109375l1.828125 -5.109375l3.25 0zm8.146454 2.921875q0 0.796875 -0.375 1.453125q-0.375 0.65625 -1.09375 1.046875q-0.71875 0.375 -1.765625 0.375l-1.046875 0l0 2.703125l-2.671875 0l0 -8.5l3.71875 0q1.5625 0 2.390625 0.796875q0.84375 0.796875 0.84375 2.125zm-3.53125 0.78125q0.828125 0 0.828125 -0.78125q0 -0.78125 -0.828125 -0.78125l-0.75 0l0 1.5625l0.75 0zm7.0380554 -1.578125l0 1.046875l2.640625 0l0 2.0l-2.640625 0l0 1.203125l3.0 0l0 2.125l-5.671875 0l0 -8.5l5.671875 0l0 2.125l-3.0 0zm9.218918 0.78125q-0.15625 -0.25 -0.453125 -0.390625q-0.28125 -0.140625 -0.6875 -0.140625q-0.765625 0 -1.1875 0.5q-0.421875 0.5 -0.421875 1.359375q0 1.0 0.46875 1.5q0.46875 0.484375 1.4375 0.484375q0.921875 0 1.484375 -0.75l-2.125 0l0 -1.875l4.328125 0l0 2.65625q-0.546875 0.953125 -1.515625 1.640625q-0.96875 0.671875 -2.453125 0.671875q-1.328125 0 -2.3125 -0.546875q-0.96875 -0.546875 -1.5 -1.53125q-0.515625 -0.984375 -0.515625 -2.25q0 -1.25 0.515625 -2.234375q0.53125 -0.984375 1.5 -1.53125q0.96875 -0.546875 2.28125 -0.546875q1.671875 0 2.71875 0.8125q1.046875 0.796875 1.234375 2.171875l-2.796875 0z" fill-rule="nonzero"/><path fill="#4285f4" d="m222.44882 156.83727l0 0c0 -5.340576E-4 4.272461E-4 -9.613037E-4 9.613037E-4 -9.613037E-4l116.31398 9.613037E-4c2.746582E-4 0 5.187988E-4 1.0681152E-4 7.019043E-4 2.89917E-4c1.8310547E-4 1.8310547E-4 2.746582E-4 4.272461E-4 2.746582E-4 6.866455E-4l-9.765625E-4 32.439972c0 5.340576E-4 -4.272461E-4 9.765625E-4 -9.460449E-4 9.765625E-4l-116.313995 -9.765625E-4l0 0c-5.340576E-4 0 -9.765625E-4 -4.272461E-4 -9.765625E-4 -9.613037E-4z" fill-rule="evenodd"/><path fill="#fcf2ea" d="m240.07062 168.85727q1.328125 0 2.328125 0.546875q1.0 0.53125 1.546875 1.5q0.546875 0.953125 0.546875 2.1875q0 1.203125 -0.546875 2.1875q-0.546875 0.96875 -1.546875 1.53125q-1.0 0.546875 -2.328125 0.546875l-3.546875 0l0 -8.5l3.546875 0zm-0.234375 6.125q0.890625 0 1.421875 -0.484375q0.53125 -0.5 0.53125 -1.40625q0 -0.921875 -0.53125 -1.40625q-0.53125 -0.5 -1.421875 -0.5l-0.640625 0l0 3.796875l0.640625 0zm9.744186 2.453125q-1.1875 0 -2.203125 -0.5625q-1.0 -0.5625 -1.59375 -1.546875q-0.578125 -1.0 -0.578125 -2.25q0 -1.25 0.578125 -2.25q0.59375 -1.0 1.59375 -1.546875q1.015625 -0.5625 2.203125 -0.5625q1.203125 0 2.203125 0.5625q1.0 0.546875 1.578125 1.546875q0.578125 1.0 0.578125 2.25q0 1.25 -0.578125 2.25q-0.578125 0.984375 -1.59375 1.546875q-1.0 0.5625 -2.1875 0.5625zm0 -2.484375q0.796875 0 1.21875 -0.5q0.4375 -0.515625 0.4375 -1.375q0 -0.875 -0.4375 -1.390625q-0.421875 -0.515625 -1.21875 -0.515625q-0.796875 0 -1.234375 0.515625q-0.421875 0.515625 -0.421875 1.390625q0 0.859375 0.421875 1.375q0.4375 0.5 1.234375 0.5zm17.565445 -6.09375l-1.953125 8.5l-3.3125 0l-0.984375 -4.828125l-0.984375 4.828125l-3.3125 0l-1.9375 -8.5l2.875 0l0.765625 5.359375l1.140625 -5.359375l2.90625 0l1.15625 5.359375l0.765625 -5.359375l2.875 0zm9.106323 8.5l-2.671875 0l-2.8125 -4.265625l0 4.265625l-2.671875 0l0 -8.5l2.671875 0l2.8125 4.34375l0 -4.34375l2.671875 0l0 8.5zm3.8637085 -2.015625l2.5625 0l0 2.015625l-5.234375 0l0 -8.5l2.671875 0l0 6.484375zm7.5407715 2.09375q-1.1875 0 -2.203125 -0.5625q-1.0 -0.5625 -1.59375 -1.546875q-0.578125 -1.0 -0.578125 -2.25q0 -1.25 0.578125 -2.25q0.59375 -1.0 1.59375 -1.546875q1.015625 -0.5625 2.203125 -0.5625q1.203125 0 2.203125 0.5625q1.0 0.546875 1.578125 1.546875q0.578125 1.0 0.578125 2.25q0 1.25 -0.578125 2.25q-0.578125 0.984375 -1.59375 1.546875q-1.0 0.5625 -2.1875 0.5625zm0 -2.484375q0.796875 0 1.21875 -0.5q0.4375 -0.515625 0.4375 -1.375q0 -0.875 -0.4375 -1.390625q-0.421875 -0.515625 -1.21875 -0.515625q-0.796875 0 -1.234375 0.515625q-0.421875 0.515625 -0.421875 1.390625q0 0.859375 0.421875 1.375q0.4375 0.5 1.234375 0.5zm10.768585 1.125l-2.828125 0l-0.421875 1.28125l-2.796875 0l3.109375 -8.5l3.078125 0l3.09375 8.5l-2.8125 0l-0.421875 -1.28125zm-0.640625 -2.0l-0.78125 -2.375l-0.765625 2.375l1.546875 0zm8.010437 -5.21875q1.328125 0 2.328125 0.546875q1.0 0.53125 1.546875 1.5q0.546875 0.953125 0.546875 2.1875q0 1.203125 -0.546875 2.1875q-0.546875 0.96875 -1.546875 1.53125q-1.0 0.546875 -2.328125 0.546875l-3.546875 0l0 -8.5l3.546875 0zm-0.234375 6.125q0.890625 0 1.421875 -0.484375q0.53125 -0.5 0.53125 -1.40625q0 -0.921875 -0.53125 -1.40625q-0.53125 -0.5 -1.421875 -0.5l-0.640625 0l0 3.796875l0.640625 0zm8.275421 -4.0l0 1.046875l2.640625 0l0 2.0l-2.640625 0l0 1.203125l3.0 0l0 2.125l-5.671875 0l0 -8.5l5.671875 0l0 2.125l-3.0 0zm8.281433 6.375l-1.59375 -3.046875l-0.015625 0l0 3.046875l-2.671875 0l0 -8.5l3.96875 0q1.03125 0 1.765625 0.375q0.734375 0.359375 1.09375 1.0q0.359375 0.625 0.359375 1.40625q0 0.859375 -0.46875 1.515625q-0.46875 0.65625 -1.359375 0.953125l1.84375 3.25l-2.921875 0zm-1.609375 -4.828125l1.046875 0q0.390625 0 0.578125 -0.171875q0.203125 -0.171875 0.203125 -0.546875q0 -0.328125 -0.203125 -0.515625q-0.203125 -0.203125 -0.578125 -0.203125l-1.046875 0l0 1.4375z" fill-rule="nonzero"/><path fill="#000000" fill-opacity="0.0" d="m534.7924 239.02815l-34.193054 0l0 21.637802l-34.184875 0" fill-rule="evenodd"/><path stroke="#0f9967" stroke-width="2.0" stroke-linejoin="round" stroke-linecap="butt" d="m534.7924 239.02815l-34.193054 0l0 21.637802l-22.184875 0" fill-rule="evenodd"/><path fill="#0f9967" stroke="#0f9967" stroke-width="2.0" stroke-linecap="butt" d="m478.4145 257.3625l-9.076202 3.3034668l9.076202 3.3034668z" fill-rule="evenodd"/><path fill="#000000" fill-opacity="0.0" d="m534.7924 280.1438l-34.193054 0l0 -19.464539l-34.184875 0" fill-rule="evenodd"/><path stroke="#0f9967" stroke-width="2.0" stroke-linejoin="round" stroke-linecap="butt" d="m534.7924 280.1438l-34.193054 0l0 -19.464539l-34.184875 0" fill-rule="evenodd"/><path fill="#ff7d6b" d="m49.908268 458.2349l123.779526 0l0 32.44095l-123.779526 0z" fill-rule="evenodd"/><path fill="#595959" d="m80.61366 478.85352q-1.515625 0 -2.515625 -0.703125q-0.984375 -0.71875 -1.0625 -2.09375l2.828125 0q0.0625 0.734375 0.640625 0.734375q0.21875 0 0.359375 -0.109375q0.15625 -0.109375 0.15625 -0.3125q0 -0.3125 -0.328125 -0.484375q-0.3125 -0.1875 -1.0 -0.4375q-0.8125 -0.28125 -1.359375 -0.546875q-0.53125 -0.28125 -0.921875 -0.8125q-0.375 -0.53125 -0.359375 -1.359375q0 -0.828125 0.421875 -1.40625q0.4375 -0.59375 1.171875 -0.890625q0.734375 -0.296875 1.65625 -0.296875q1.5625 0 2.484375 0.71875q0.921875 0.71875 0.96875 2.03125l-2.875 0q-0.015625 -0.359375 -0.1875 -0.515625q-0.15625 -0.15625 -0.40625 -0.15625q-0.15625 0 -0.265625 0.109375q-0.109375 0.109375 -0.109375 0.328125q0 0.28125 0.3125 0.46875q0.328125 0.1875 1.015625 0.453125q0.8125 0.296875 1.328125 0.578125q0.515625 0.265625 0.890625 0.765625q0.390625 0.484375 0.390625 1.234375q0 0.78125 -0.390625 1.40625q-0.375 0.609375 -1.109375 0.953125q-0.71875 0.34375 -1.734375 0.34375zm10.843796 -8.578125l0 2.109375l-2.25 0l0 6.390625l-2.65625 0l0 -6.390625l-2.234375 0l0 -2.109375l7.140625 0zm3.3920593 0l0 8.5l-2.671875 0l0 -8.5l2.671875 0zm3.864029 6.484375l2.5625 0l0 2.015625l-5.234375 0l0 -8.5l2.671875 0l0 6.484375zm6.0720367 0l2.5625 0l0 2.015625l-5.234375 0l0 -8.5l2.671875 0l0 6.484375zm7.9714203 4.765625q-1.140625 -1.09375 -1.8125 -2.875q-0.671875 -1.796875 -0.671875 -3.875q0 -2.078125 0.671875 -3.859375q0.671875 -1.78125 1.8125 -2.875l2.578125 0l0 0.25q-1.171875 1.21875 -1.84375 2.953125q-0.671875 1.71875 -0.671875 3.53125q0 1.84375 0.671875 3.5625q0.671875 1.71875 1.84375 2.953125l0 0.234375l-2.578125 0zm9.977921 -8.328125q0 0.796875 -0.375 1.453125q-0.375 0.65625 -1.09375 1.046875q-0.71875 0.375 -1.765625 0.375l-1.046875 0l0 2.703125l-2.671875 0l0 -8.5l3.71875 0q1.5625 0 2.390625 0.796875q0.84375 0.796875 0.84375 2.125zm-3.53125 0.78125q0.828125 0 0.828125 -0.78125q0 -0.78125 -0.828125 -0.78125l-0.75 0l0 1.5625l0.75 0zm12.52243 4.796875l-2.671875 0l-2.8125 -4.265625l0 4.265625l-2.671875 0l0 -8.5l2.671875 0l2.8125 4.34375l0 -4.34375l2.671875 0l0 8.5zm6.410568 -5.59375q-0.15625 -0.25 -0.453125 -0.390625q-0.28125 -0.140625 -0.6875 -0.140625q-0.765625 0 -1.1875 0.5q-0.421875 0.5 -0.421875 1.359375q0 1.0 0.46875 1.5q0.46875 0.484375 1.4375 0.484375q0.921875 0 1.484375 -0.75l-2.125 0l0 -1.875l4.328125 0l0 2.65625q-0.546875 0.953125 -1.515625 1.640625q-0.96875 0.671875 -2.453125 0.671875q-1.328125 0 -2.3125 -0.546875q-0.96875 -0.546875 -1.5 -1.53125q-0.515625 -0.984375 -0.515625 -2.25q0 -1.25 0.515625 -2.234375q0.53125 -0.984375 1.5 -1.53125q0.96875 -0.546875 2.28125 -0.546875q1.671875 0 2.71875 0.8125q1.046875 0.796875 1.234375 2.171875l-2.796875 0zm3.070938 8.34375l0 -0.234375q1.15625 -1.234375 1.828125 -2.953125q0.671875 -1.71875 0.671875 -3.5625q0 -1.8125 -0.671875 -3.53125q-0.671875 -1.734375 -1.828125 -2.953125l0 -0.25l2.5625 0q1.15625 1.09375 1.8125 2.875q0.671875 1.78125 0.671875 3.859375q0 2.078125 -0.671875 3.875q-0.65625 1.78125 -1.8125 2.875l-2.5625 0z" fill-rule="nonzero"/><path fill="#000000" fill-opacity="0.0" d="m280.6063 156.83727l0 -62.708656l69.51181 0" fill-rule="evenodd"/><path stroke="#4285f4" stroke-width="2.0" stroke-linejoin="round" stroke-linecap="butt" d="m280.6063 156.83727l0 -62.708656l57.51181 0" fill-rule="evenodd"/><path fill="#4285f4" stroke="#4285f4" stroke-width="2.0" stroke-linecap="butt" d="m338.1181 97.432076l9.076202 -3.3034668l-9.076202 -3.3034668z" fill-rule="evenodd"/><path fill="#000000" fill-opacity="0.0" d="m350.11053 369.13385l-43.674255 0l0 -104.06299l-132.98718 0" fill-rule="evenodd"/><path stroke="#735c94" stroke-width="2.0" stroke-linejoin="round" stroke-linecap="butt" stroke-dasharray="8.0,6.0" d="m338.11053 369.13385l-31.674255 0l0 -104.06299l-132.98717 0" fill-rule="evenodd"/><path fill="#735c94" stroke="#735c94" stroke-width="2.0" stroke-linecap="butt" d="m338.11053 372.43732l9.076172 -3.3034668l-9.076172 -3.3034668z" fill-rule="evenodd"/><path fill="#000000" fill-opacity="0.0" d="m408.268 385.35434l0 89.102356l-234.58269 0" fill-rule="evenodd"/><path stroke="#ff7d6b" stroke-width="2.0" stroke-linejoin="round" stroke-linecap="butt" d="m408.268 385.35434l0 89.102356l-222.58267 0" fill-rule="evenodd"/><path fill="#ff7d6b" stroke="#ff7d6b" stroke-width="2.0" stroke-linecap="butt" d="m185.68533 471.15323l-9.076202 3.3034668l9.076202 3.3034668z" fill-rule="evenodd"/><path fill="#000000" fill-opacity="0.0" d="m408.268 385.35434l0 36.771576l-146.49457 0l0 -104.70859l-88.34009 0" fill-rule="evenodd"/><path stroke="#ff7d6b" stroke-width="2.0" stroke-linejoin="round" stroke-linecap="butt" d="m408.268 385.35434l0 36.771576l-146.49454 0l0 -104.70859l-76.3401 0" fill-rule="evenodd"/><path fill="#ff7d6b" stroke="#ff7d6b" stroke-width="2.0" stroke-linecap="butt" d="m185.43336 314.11386l-9.076202 3.3034668l9.076202 3.3034668z" fill-rule="evenodd"/></g></svg>