<svg width="9609" height="1808" viewBox="0 0 9609 1808" fill="none" xmlns="http://www.w3.org/2000/svg">
<path d="M1344.26 514.202V5.87289e-05L0 0V514.202L398.301 514.202V646.899H0V1161.1H398.301V1808H945.964V1161.1H1477.03V1808H2024.69V1161.1H2373.21V1808H2920.87V1161.1H3053.64V1808H4198.75V1293.8H3601.3V1161.1L4862.59 1161.1V1808H5908.12V1293.8H5410.25V1161.1H6040.89V1808H6588.55V1161.1H6721.32V1808H7268.98V1161.1H7403.43L7783.46 1808H8331.12V1161.1H8463.89V1808H9609V1293.8H9011.55V1161.1H9609V646.899H9011.55V514.202L9609 514.202V5.87289e-05H8463.89V646.899H8331.12V5.87289e-05H7783.46V646.899H7649.01L7268.98 5.87289e-05H6721.32V646.899H6588.55V5.87289e-05H6040.89V646.899H5410.25V5.87289e-05H4862.59V646.899L3601.3 646.899V514.202L4198.75 514.202V5.87289e-05H3053.64V646.899H2920.87V5.87289e-05H2373.21V646.899L2024.69 646.899V5.87289e-05H1477.03V646.899H945.964V514.202L1344.26 514.202Z" fill="#FF391E"/>
</svg>
